<svg version="1.1" xmlns="http://www.w3.org/2000/svg" viewBox="0 0 720 440" width="720" height="440">
  <!-- svg-source:excalidraw -->
  
  <defs>
    <style>
      @font-face {
        font-family: "Virgil";
        src: url("https://excalidraw.com/FG_Virgil.woff2");
      }
      @font-face {
        font-family: "Cascadia";
        src: url("https://excalidraw.com/Cascadia.woff2");
      }
    </style>
  </defs>
  <rect x="0" y="0" width="720" height="440" fill="#ffffff"></rect><g transform="translate(250 10) rotate(0 230 210)"><path d="M-1.6539645940065384 1.4750827103853226 L459.7175130099058 0.0705011636018753 L459.16166822612286 420.88694317638874 L1.6340674608945847 418.0704048424959" stroke="none" stroke-width="0" fill="#f8f9f9"></path><path d="M-0.06815654905501008 0.520732565608412 C141.6115007149392 -1.5697669495164184, 284.85402749269684 -0.5082400349780349, 460.3587067124415 0.31626826527824997 M-0.016660448900982738 0.21221510066227614 C100.36269293875284 -1.454617154326409, 200.69418318500348 -1.3824171674351393, 460.45475667344067 -0.3864923463787585 M458.9902416589411 -0.43568125320085876 C458.43823728935223 162.48064592968527, 458.389042717305 324.1704971825482, 460.78698744768224 420.07947906900466 M459.657378950147 0.42319454525940114 C461.545659169193 89.00440254547637, 460.9135232474453 178.54471106124203, 459.75724842465 420.3894782815184 M459.59167561949164 419.2112684822363 C294.41800301906596 421.40360822244446, 127.58880327420053 422.31557572481245, -0.49219590300837157 420.7890858828949 M460.38437335886977 419.965422001525 C323.20707675895375 418.9473063709382, 185.64813879986116 418.7328258983873, -0.09556999739579855 419.60757170740754 M0.6225638447454869 420.49749370940174 C-1.9724806828826218 260.4330285669419, -2.220238636216476 102.47872044953695, 0.6070790521267354 -0.3797307903531491 M0.33095179042656714 420.49810768082517 C0.09229237730593676 299.7744517117714, 0.6703905812601565 179.82892545260228, 0.003611360785320401 0.47536846820108586" stroke="#000000" stroke-width="1" fill="none"></path></g><g transform="translate(376.4402760517387 50) rotate(0 36.56640526547096 39.65030677701259)"><path d="M-0.6306545678526163 1.6733551863580942 C22.419267545882636 -1.2808329788514405, 47.92866803791379 1.3021931322745055, 74.5327550207637 0.7204681877046824 M-0.4501104233786464 0.7197530893608928 C27.430234393893965 0.15661415640177823, 56.17301836674519 -0.11571430977520847, 73.2807223598845 -0.1481051119044423 M74.30316222062332 -1.9535873886197805 C71.9864932143069 31.98439611971412, 73.72512905233867 59.95304407201775, 73.19662100424988 79.49597060290914 M73.5654063026793 -0.16950246412307024 C73.40830728928624 16.30110086852885, 73.82038003723203 31.642465118844342, 72.40376688050104 79.63456312270652 M74.54394775977356 80.30578648654561 C51.313237809628376 80.16136569968165, 26.7586810424666 80.19153155079783, -1.1939334217458963 78.9404124578629 M72.2831697564013 80.29078570456993 C49.11294145044297 80.06356501510396, 23.10013521021949 79.75068059494748, -0.03702463489025831 80.08446276636612 M1.5452542956918478 78.27072089521032 C-1.165008394409241 60.30306841466693, 0.6891708091010433 46.05760869840577, -0.2732505742460489 1.92153056897223 M0.025720220990478992 78.84140098543655 C-1.1736452855865416 63.39649857863202, 0.07234889485436102 46.12014761683482, -0.011108028702437878 -0.19565349537879229" stroke="#495057" stroke-width="2" fill="none"></path></g><g transform="translate(375.5598051252973 53.56695655743533) rotate(0 34.603958138375106 38.96023276967139)"><path d="M0.6462675984948874 -0.016753053292632103 L68.52128078810597 -0.5816723462194204 L67.30209191910649 77.8728977191664 L-0.14624773897230625 78.39585760714782" stroke="none" stroke-width="0" fill="#ffff"></path><path d="M1.6733551863580942 -1.4717993084341288 C26.243269483424164 0.364765771937727, 56.29398250180371 1.6181759324792615, 69.9283844644549 1.7198886927217245 M0.7197530893608928 -0.7986234603449702 C22.994535119549333 0.026814703232138692, 46.06979608497947 0.4594238739074164, 69.05981116484577 0.8181432606652379 M67.25432888813043 -1.6168360654264688 C71.61656271721516 28.12123783119078, 69.30710034872685 56.062686590478926, 69.40327332563425 76.00057222055567 M69.03841381262714 -0.05344568472355604 C68.57055423986743 26.96694200725499, 67.73417033088039 52.48758623762465, 69.54186584543163 78.0000953601144 M70.21308920927072 78.62309123682154 C50.198070985470586 77.07904222439187, 30.77334855329643 77.21484145353692, -0.3602010961622 78.65335269378794 M70.19808842729503 78.52034448845608 C45.064241238381015 76.53926760194754, 19.85092913705244 77.29542222855544, 0.7838492123410106 77.10579445226413 M-1.0298926588147879 75.97193189071787 C-1.7533194063247244 62.14885922586359, 1.3310132386146982 46.29271122836771, 1.92153056897223 -1.7979051414877176 M-0.45921256858855486 77.27056720121128 C0.01713090232471015 49.99410517304287, -0.5977850348605773 20.86444509342182, -0.19565349537879229 -0.3898754296824336" stroke="#495057" stroke-width="2" fill="none"></path></g><g transform="translate(370 149.21956718092133) rotate(0 41.5 25)"><text x="41.5" y="18" font-family="Virgil, Segoe UI Emoji" font-size="20px" fill="#495057" text-anchor="middle" style="white-space: pre;" direction="ltr">Plan de </text><text x="41.5" y="43" font-family="Virgil, Segoe UI Emoji" font-size="20px" fill="#495057" text-anchor="middle" style="white-space: pre;" direction="ltr">trabajo</text></g><g transform="translate(381.6502415311461 112.05638698041366) rotate(0 5.882352941176464 6.617647058823536)"><path d="M6.362486019015506 -0.825736948255706 C7.571472943323947 -0.6135240417622997, 9.85896538318136 2.251069397787683, 10.672409770319469 3.381516739086077 C11.485854157457577 4.511964080384471, 11.460154431433477 4.677259953908218, 11.243152341844162 5.956947099534661 C11.026150252254848 7.236634245161104, 10.021511991995418 9.878253791132476, 9.370397232783585 11.059639612844737 C8.719282473571752 12.241025434556999, 8.287553079472996 13.007447922358402, 7.336463786573162 13.045262029808232 C6.385374493673328 13.083076137258061, 4.7322578200194485 11.871776933791377, 3.6638614753845773 11.286524257543718 C2.5954651307497056 10.701271581296059, 1.4563945980882116 10.814341398627782, 0.9260857187639324 9.53374597232227 C0.39577683943965325 8.253150546016759, 0.2136948820249303 4.942980949505239, 0.4820081994389023 3.6029516997106437 C0.7503215168528743 2.262922449916048, 1.259321026672862 2.025310793064412, 2.535965623247764 1.493570473554695 C3.812610219822666 0.961830154044978, 7.2552334612070535 0.6059174883903276, 8.141875778888314 0.4125097826523412 C9.028518096569575 0.2191020769143548, 8.047871857923994 0.197210268121048, 7.85581952933533 0.3331242391267768 M4.428347901894276 -0.03561782332493557 C5.69292079026733 0.006384123308803925, 8.371441091732132 0.7832731738546155, 9.534864698620158 1.887008078776974 C10.698288305508184 2.9907429836993327, 11.347963382481945 5.190054384525422, 11.408889543222429 6.586791606209216 C11.469815703962913 7.98352882789301, 10.553469377608291 9.13287982648177, 9.900421663063067 10.267431408879737 C9.247373948517843 11.401982991277706, 8.390381661647858 13.095203475145938, 7.490603255951088 13.39410110059703 C6.590824850254318 13.692998726048122, 5.536143406373973 12.87295119274435, 4.501751228882446 12.060817161586286 C3.467359051390919 11.24868313042822, 2.2520473115348203 9.76747736666477, 1.2842501910019282 8.521296913648643 C0.3164530704690359 7.275116460632516, -1.637557776521136 5.692691893921228, -1.3050314943149077 4.5837344434895275 C-0.9725052121086795 3.4747769930578274, 2.3161579992946306 2.595053827044032, 3.279407884239298 1.8675522110584408 C4.242657769183966 1.1400505950728497, 3.834575286145331 0.6396543567636559, 4.474467815353099 0.21872474757598148 C5.114360344560866 -0.202204861611693, 7.071266967733216 -0.6314706661848183, 7.118763059485903 -0.6580254440676061" stroke="none" stroke-width="0" fill="#868e96"></path><path d="M6.458030499972627 0.8643843549935362 C7.606367087171939 0.5964725222365217, 9.399381533537829 0.08330071261574978, 10.199502108510977 1.0105234016707838 C10.999622683484125 1.9377460907258177, 11.280861483029094 4.965958018802713, 11.25875394981151 6.4277204893237405 C11.236646416593926 7.889482959844768, 10.709026180982493 8.804127822894918, 10.066856909205473 9.781098224796953 C9.424687637428454 10.758068626698988, 8.44733434034948 11.819554762142229, 7.405738319149391 12.289542900735952 C6.364142297949302 12.759531039329676, 4.801249617109189 12.93133683936828, 3.8172807820049406 12.601027056359293 C2.833311946900692 12.270717273350305, 1.9661311531517454 11.43856206925434, 1.5019253085239015 10.307684202682033 C1.0377194638960576 9.176806336109726, 1.067027965164027 7.435803294783991, 1.032045714237877 5.8157598569254505 C0.9970634633117269 4.19571641906691, 0.2463054743099773 1.541360012015676, 1.292031802967001 0.5874235755307913 C2.3377581316240246 -0.36651286095409363, 6.440649453935969 0.14924247368875396, 7.306403686180019 0.09214123801614083 C8.17215791842407 0.0350400023435277, 6.621983056360186 0.305183823992655, 6.486557196431299 0.24481616149511254 M6.839384398124526 0.061653274734513985 C8.30144449655208 0.23785752357570886, 10.05325202896646 2.1240906018774246, 10.695351588003163 3.0707416751794883 C11.337451147039866 4.0173927484815515, 10.680752462882992 4.394161060984735, 10.691981752344741 5.741559714546895 C10.70321104180649 7.088958368109055, 11.473140659702246 9.775118993645664, 10.762727324773657 11.155133596552446 C10.052313989845068 12.535148199459227, 7.584339077935748 13.715712505775283, 6.429501742773214 14.021647331987586 C5.27466440761068 14.327582158199888, 4.768855765831035 13.826148316946927, 3.833703313798453 12.990742553826266 C2.898550861765871 12.155336790705604, 1.553112122685485 10.423079003860048, 0.8185870305777208 9.00921275326362 C0.08406193846995658 7.595346502667192, -0.8061377025950802 5.92394679084082, -0.5734472388481322 4.507545050247696 C-0.3407567751011842 3.091143309654572, 0.8452713632275668 1.0889438239704918, 2.214729813059409 0.5108023097048733 C3.584188262891251 -0.06733920456074516, 6.832070669335097 1.291016825413295, 7.64330346014292 1.0386959646539857 C8.454536250950742 0.7863751038946765, 6.9463825004613104 -1.1115439859403182, 7.08212655790634 -1.0031228548509823" stroke="#495057" stroke-width="2" fill="none"></path></g><g transform="translate(415.9639191506312 57.15444713953639) rotate(0 4.656874712775789 3.9215671314912015)"><path d="M3.5826257154450816 0.1104847313213253 C4.527396439340848 0.09560289888869374, 7.5779415137472315 -0.014431040395481487, 8.356333746438585 0.35637886167983046 C9.13472597912994 0.7271887637551424, 8.198187975776186 1.3068344302344963, 8.252979111593202 2.335344143773197 C8.307770247410218 3.3638538573118977, 9.028289194447616 5.493004439722115, 8.685080561340676 6.527437142912034 C8.341871928233736 7.561869846101954, 7.266831415940815 8.247964996708006, 6.193727312951558 8.541940362912715 C5.120623209962301 8.835915729117424, 3.009139608566675 8.719845658452012, 2.2464559434051328 8.29128934014029 C1.4837722782435905 7.862733021828569, 2.059142584037898 6.908766878594405, 1.6176253219823042 5.970602453042385 C1.1761080599267102 5.0324380274903655, -0.5255916981799637 3.3972790311716046, -0.4026476289284311 2.662302786828173 C-0.27970355967689847 1.927326542484741, 1.4049259696066945 2.0025313602521537, 2.3552897374915 1.5607449869817955 C3.305653505376305 1.1189586137114373, 4.772347730884445 0.30619325342161247, 5.2995349783804 0.011584547206023199 C5.826722225876355 -0.28302415900956607, 5.496629210491095 -0.2723437432474725, 5.5184132224672275 -0.20690725031173995 M3.8257251321183157 -0.05204958721761743 C4.881674570936808 -0.043192566539110855, 6.2938854535692315 0.009837495423278608, 7.353437462275435 0.2689185466136754 C8.412989470981639 0.5279995978040722, 9.843059638806672 0.7394829139728248, 10.18303718435554 1.5024367199247635 C10.523014729904407 2.265390525876702, 9.833618012185255 3.7751344860222398, 9.393302735568636 4.846641382325307 C8.952987458952016 5.918148278628375, 8.598324235070532 7.361687492933672, 7.541145524655821 7.9314780977431685 C6.483966814241111 8.501268702552665, 4.365127128294132 8.746716821457333, 3.05023047308037 8.265385011182282 C1.7353338178666082 7.7840532009072305, 0.3121467392551399 5.569835640801316, -0.3482344066267493 5.04348723609286 C-1.0086155525086387 4.517138831384403, -1.2033581838612224 5.946382370737809, -0.9120564022109656 5.107294582931543 C-0.6207546205607088 4.268206795125276, 0.5675555990697584 0.6404778779189427, 1.3995762832747913 0.008960509255262039 C2.2315969674798244 -0.6225568594084187, 3.798851216007393 1.4806538968356, 4.080067703019232 1.3181903709494587 C4.361284190031071 1.1557268450633174, 3.210465238253463 -0.7438789748503642, 3.0868752053458253 -0.9658206460615855" stroke="none" stroke-width="0" fill="#868e96"></path><path d="M7.0682995049620025 0.5975799440181615 C7.749045410771716 0.6812531716081613, 7.487196943161144 0.9504647193354258, 7.970840901111231 1.4787899772421527 C8.454484859061319 2.0071152351488797, 10.076861612692912 2.9111460949432595, 9.970163252662527 3.767531491458523 C9.863464892632141 4.623916887973786, 8.313123014909312 5.913212215947519, 7.3306507409289186 6.617102356333734 C6.348178466948526 7.320992496719949, 5.038920986574863 7.799155887923818, 4.075329608780169 7.990872333775811 C3.1117382309854764 8.182588779627803, 2.1163408258843948 8.175838684993234, 1.54910247416076 7.767401031445692 C0.9818641224371251 7.35896337789815, 0.7321934755822288 6.665472118613225, 0.6718994984383597 5.540246412490561 C0.6116055212944906 4.415020706367896, 0.9302238016627233 1.755682601566336, 1.1873386112975455 1.016046794709701 C1.4444534209323676 0.2764109878530657, 1.2868065601378902 1.2562441156043502, 2.214588356247293 1.1024315713507487 C3.142370152356696 0.948619027097147, 5.934130468820296 0.14786220226564661, 6.7540293879539615 0.09317152918809102 C7.573928307087627 0.03848085611053542, 7.3380605418132525 0.5961086282761179, 7.133981871049285 0.7742875328854151 M2.3927256898871527 0.6430333786396822 C3.1835470381311413 0.0885754214395279, 5.358595664845916 -1.2112001279313551, 6.165570113606003 -0.9833965777076843 C6.972544562366089 -0.7555930274840134, 6.690456384489308 1.2164173005262562, 7.23457238244767 2.0098546799817076 C7.778688380406032 2.803292059437159, 9.141275303065704 2.8446063288806838, 9.430266101356173 3.7772276990250253 C9.719256899646641 4.709849069169367, 9.530845136048084 6.846413784383042, 8.96851717219048 7.605582900847758 C8.406189208332878 8.364752017312474, 7.130936047714962 8.558374950419987, 6.056298318210551 8.332242397813319 C4.9816605887061405 8.106109845206651, 3.432818892619932 6.931516130342178, 2.5206907951640143 6.248787585207749 C1.6085626977080967 5.56605904007332, 0.9919920594562863 4.77730850643412, 0.5835297334750456 4.235871127006742 C0.17506740749380473 3.6944337475793647, -0.39445626844536047 3.627688749567928, 0.06991683927656922 3.0001633086434842 C0.534289946998499 2.3726378677190403, 3.174402408839777 0.6353234000754482, 3.3697683798066236 0.4707184814600791 C3.5651343507734703 0.30611356284471003, 1.2052222800083183 1.7677386170823401, 1.2421126650776482 2.0125337969512698" stroke="#495057" stroke-width="2" fill="none"></path></g><g><g transform="translate(393.41494741349925 113.52697521570735) rotate(0 12.952256992432197 -8.682013980978468)"><path d="M0.08792059756815429 0.8151652123779056 C0.2933916417626278 -0.7877328446901632, -2.013471109178962 -7.186312398920624, 0.34974668010636356 -10.352038796706074 C2.7129644693916894 -13.517765194491524, 9.889740653913108 -17.853726575384627, 14.267227333280108 -18.179193174334795 C18.644714012647107 -18.504659773284963, 24.273427951182605 -13.21419491366843, 26.61466675630836 -12.304838390407076" stroke="#495057" stroke-width="1.5" fill="none" stroke-dasharray="3 6"></path></g></g><g><g transform="translate(416.4949903818897 103.23283961713241) rotate(0 9.676807646492009 -18.135413413341325)"><path d="M0.8151652123779056 0.349764631623014 C4.186588260730763 -1.9103033537767369, 18.165133956151895 -7.80096336211229, 19.493887835819482 -13.962689377100412 C20.82264171548707 -20.124415392088537, 10.736785769668222 -33.12760667939255, 8.787688490383434 -36.62059145830572 M-0.21601178046315916 -0.2548567994222198 C3.099496473683079 -2.8379559325404005, 17.360567487965216 -9.628949201173732, 18.772789851319253 -15.543499187671786 C20.18501221467329 -21.45804917416984, 10.09234843494445 -32.162191130524064, 8.257322399661051 -35.74215671841055" stroke="#495057" stroke-width="2" fill="none"></path></g></g><g><g transform="translate(422.3364921055945 79.21324374167307) rotate(0 10.769392834269595 -7.366102993595064)"><path d="M0.8399666938930748 0.4322809126228093 C1.895990951468828 -1.9164540157233203, 3.3537729953652464 -12.543279032109611, 6.4240661430226735 -13.277244357698873 C9.494359290680102 -14.011209683288135, 16.838783439080764 -5.452763986317184, 19.261725579837638 -3.9715110409127647 M-0.17818952115252618 -0.3863755535893143 C0.8024145516917437 -3.1728476553735163, 2.3685914991287738 -14.739283862913332, 6.017785617602813 -15.164486899812982 C9.666979736076852 -15.589689936712631, 19.10959571260919 -4.83350849562299, 21.716975189691713 -2.9375937749872083" stroke="#495057" stroke-width="1" fill="none"></path></g></g><g><g transform="translate(390.57189393192675 63.621099360512744) rotate(0 6.152679716706672 7.065670570783823)"><path d="M0.4322809126228093 1.0319332156330348 C2.4806316723936668 2.9760843957515535, 11.157835682985123 10.309384780154614, 13.10526977100305 12.504873774604187 M-0.7999103375896812 0.5280942085012792 C1.05831421173005 2.5299407023118907, 10.414635195006365 11.638629557603089, 12.392556514040452 13.603246933066533" stroke="#495057" stroke-width="4" fill="none"></path></g></g><g><g transform="translate(390.6600001973675 76.57282318829311) rotate(0 7.104070003434003 -6.2034004083476475)"><path d="M1.0319332156330348 0.44825182221829896 C2.8620517897763915 -1.7663037697044441, 9.739221750278805 -10.568132621331724, 11.820678138753216 -12.855052638913648 M0.1145594245009125 -0.3620199164561928 C2.249984275323308 -2.457293934487296, 11.911270870552245 -9.585047902057532, 14.093580582367073 -11.60119695442091" stroke="#495057" stroke-width="4" fill="none"></path></g></g><g><g transform="translate(412.9247633023315 110.77795612177033) rotate(0 5.670665370136916 6.684288740918646)"><path d="M0.44825182221829896 -0.8362897004932165 C2.3956859102362262 1.3591992939563564, 10.241815778371627 11.912569182143596, 12.116885440730375 14.204867182330474 M-0.7755547004565597 1.3390542614087462 C0.9287719244399537 3.724190922074216, 8.407704840470785 10.423485770636288, 10.885270410374623 12.535736879849122" stroke="#495057" stroke-width="4" fill="none"></path></g></g><g><g transform="translate(413.0128695677731 123.72967994955252) rotate(0 6.34219092299314 -5.741287151697634)"><path d="M-0.8362897004932165 -0.5401325080543756 C1.245166687981195 -2.8270525256362986, 11.342406152267788 -11.253864211125885, 13.520671546479504 -13.273268283273238 M0.9255194774083795 1.7906939798779788 C2.8342344950856337 -0.4149357872833739, 11.306127083585444 -10.020788576493626, 13.026070529149662 -12.238975812069285" stroke="#495057" stroke-width="4" fill="none"></path></g></g><g transform="translate(567.9402760517387 50) rotate(0 36.566405265470955 39.65030677701259)"><path d="M1.0526760276407003 1.7245302442461252 C15.533796019250309 1.1467125613660727, 29.368986674312065 0.5702251989812765, 73.41157549967987 0.2638059500604868 M-0.9655490098521113 -0.01625457126647234 C14.649434077180935 -1.5955610621592546, 29.67321252096447 -0.49462998396368263, 73.30241126822305 0.7971892980858684 M71.70857876887543 -1.0913867112249136 C74.76370278995945 16.97538367782257, 72.94642851751759 32.17724966318353, 71.36985409608108 79.63054638711553 M72.17499346541238 -0.7875701757147908 C71.78695857632545 16.125151669695068, 72.29066130626586 32.964329012846626, 73.273595551718 79.1343514368106 M72.9913355146907 78.16010409204107 C47.01814741179531 80.6237071234728, 23.510236027039575 80.40707922764074, -1.3028868380934 79.65005194751363 M73.8710236351378 79.58536619396698 C51.43584583782677 79.10422306717452, 30.225930682422472 79.09788676560935, -0.7831980464980006 79.54771104903709 M1.8173891361802816 78.4916061124001 C0.3819783098102313 56.91918615337589, -1.105519198715617 36.96635886097764, 0.7844010051339865 -0.1790811773389578 M-0.42698852997273207 80.1372832402755 C1.040770085141408 56.7423384326289, -0.3214958891418105 34.70640527506776, -0.9907456813380122 -0.284783867187798" stroke="#495057" stroke-width="2" fill="none"></path></g><g transform="translate(573.568181818182 59.16281389349115) rotate(0 34.603958138375106 38.96023276967139)"><path d="M0.19713092409074306 -0.29316321574151516 L69.92632921807194 -1.4889094587415457 L70.05943336359883 77.50176480891479 L0.897041505202651 79.01096317651046" stroke="none" stroke-width="0" fill="#ffff"></path><path d="M1.7245302442461252 0.7994200047105551 C25.8639850133759 -0.46403292670493956, 50.3484352811629 -0.08550260319953795, 69.4717222268107 -1.82298463024199 M-0.01625457126647234 -0.6244096038863063 C15.418715674848926 -0.2062384908205731, 32.81435162378415 0.8378370876305835, 70.00510557483608 -0.8753920970484614 M68.1165295655253 1.672062462195754 C69.28245812477944 22.826391082643923, 67.63605308356163 44.18024935091924, 69.53784910984064 76.10825164722574 M68.42034610103542 -0.7999519286677241 C69.17420224549441 17.71589865349316, 69.4086791992393 36.16508072521703, 69.04165415953571 78.28180547816974 M68.06740681476617 76.38822610782755 C48.05365776790505 77.41378245530323, 25.41237004001365 76.56862274584965, 0.34943839348852634 77.66115762399805 M69.49266891669208 77.21514817340595 C51.71262717146455 77.50778225227576, 34.58557290640059 77.64816939994078, 0.2470974950119853 77.5636472628854 M-0.809007441624999 78.32225085901392 C-1.1641540747272758 53.263990802414, -0.15638812595484552 31.56334144832873, -0.1790811773389578 -0.42751132883131504 M0.8366696862503886 78.80289053185207 C0.011242313034357188 55.62037743944313, 0.0703976877997533 33.28922562175344, -0.284783867187798 -0.802053022198379" stroke="#495057" stroke-width="2" fill="none"></path></g><g transform="translate(550 147.9695671809195) rotate(0 53 25)"><text x="53" y="18" font-family="Virgil, Segoe UI Emoji" font-size="20px" fill="#495057" text-anchor="middle" style="white-space: pre;" direction="ltr">Minutas de</text><text x="53" y="43" font-family="Virgil, Segoe UI Emoji" font-size="20px" fill="#495057" text-anchor="middle" style="white-space: pre;" direction="ltr">Reunión</text></g><g><g transform="translate(579.7654826444432 81.50140011228905) rotate(0 29.766553593827375 0.5426231495926004)"><path d="M0.47965200282633313 0.48182842992246155 C10.417847168842938 0.273920444016715, 50.25940281202389 -0.10069466200937831, 60.260776612684054 -0.21272976888680462 M-0.7276694250293076 -0.3108155897073448 C8.992001279598709 0.21700073585789403, 49.1916922457081 1.14255870801116, 59.28130506230511 1.396061888892561" stroke="#495057" stroke-width="1" fill="none"></path></g></g><g><g transform="translate(580.7209038212313 88.66149054396101) rotate(0 29.8661107321642 0.15347008564333464)"><path d="M0.48182842992246155 -0.05985921286046514 C10.3854707118372 -0.17003568002078945, 50.45705667709305 0.049026090974906955, 60.456571838036105 -0.1814068001356126 M-0.7243503737077117 -1.1368892449513077 C8.942627182664959 -1.0700323532993, 49.49311438993855 1.3708828563121955, 59.57989278096698 1.443829416238129" stroke="#495057" stroke-width="1" fill="none"></path></g></g><g><g transform="translate(580.747214863346 98.597270214741) rotate(0 29.46873538891781 0.29592019392941893)"><path d="M-0.05985921286046514 0.13593601249158382 C9.941514587799695 0.023900905614157517, 50.60677743007733 0.019493395413259673, 60.487894806787295 -0.19038221134209632 M-1.5504240289516749 -0.8383015262894332 C8.265594093507763 -0.774279060206006, 49.11143853823958 1.325845495580683, 59.62766030831255 1.4301419141482412" stroke="#495057" stroke-width="1" fill="none"></path></g></g><g><g transform="translate(580.6551287998773 107.5668328500069) rotate(0 29.613541542645507 -0.6375987891403838)"><path d="M0.13593601249158382 0.16725898124277583 C10.135451173434642 -0.06317390986774374, 50.57724473451568 -1.5532540608691177, 60.47891939558081 -1.4424565595235825 M-1.2518363102898002 -0.7905339989438653 C8.561347386601058 -0.9070681538159053, 49.06640117750807 -0.46259437524994224, 59.61397280622266 -0.47927146682852517" stroke="#495057" stroke-width="1" fill="none"></path></g></g><g transform="translate(570.4402760517387 250) rotate(0 36.566405265470955 39.65030677701259)"><path d="M0.2638059500604868 -1.82298463024199 C20.28395070879099 1.8659152896170725, 41.21897622008497 -0.13444347073983054, 71.8839913231693 -1.7519783917814493 M0.7971892980858684 -0.8753920970484614 C15.49264624566433 -0.19150104602935258, 30.37700986285949 -0.6697271414673561, 73.96884176203979 0.06355632562190294 M73.46274336403233 -1.8122138921171427 C71.15362005088323 24.35874749633336, 70.61477230641836 44.853689216204764, 71.53290667360646 78.3415161146019 M72.96654841372741 0.361339938826859 C73.17865422819328 21.5129598207205, 72.86772960875702 42.311564756630254, 72.36669081518424 79.93581421563219 M73.48224892443044 79.04130563868027 C51.81432932984589 79.31147433179453, 34.07703755813733 79.39369995254114, -1.41063473187387 78.55147127045136 M73.3799080259539 78.94379527756762 C57.97238259362094 78.39842588554058, 43.67069498324844 78.32333508978519, 0.2008926598355174 78.59019647428583 M-0.1790811773389578 78.87310222519379 C-0.23557120366503315 58.59758557756162, -0.690194247202173 42.00334906603785, 1.7648499850183725 -0.926373178139329 M-0.284783867187798 78.49856053182673 C0.4189646939384344 59.169016306251464, 0.6796057025539282 38.58612754484857, 0.4257585434243083 -0.20935036521404982" stroke="#495057" stroke-width="2" fill="none"></path></g><g transform="translate(569.5598051252964 253.56695655743533) rotate(0 34.603958138375106 38.96023276967139)"><path d="M1.090497637167573 -0.5885562840849161 L71.00752721376443 1.0195406135171652 L67.45287136383081 76.14747400688303 L-0.07426336966454983 77.15334846185816" stroke="none" stroke-width="0" fill="#ffff"></path><path d="M-1.82298463024199 -1.2910864111036062 C23.514211848475092 -2.0223853202296964, 43.06021531876932 -1.3401065082980863, 67.45593788496876 -1.748949682340026 M-0.8753920970484614 -0.051916626282036304 C22.25168351861946 -1.263833983019722, 44.09260820197537 0.2843131291113966, 69.27147260237211 -0.07260590512305498 M67.39570238463307 -1.3767863865941763 C69.66539705861672 15.541307014886076, 66.94592399467095 33.313978434554805, 68.24881883732701 77.32796714188827 M69.56925621557707 0.24018711131066084 C69.38966669725797 21.395791544209747, 68.74736188935658 42.16693838891303, 69.8431169383573 77.69160197502298 M68.94860836140538 76.86808392884505 C45.28634789601601 79.51781126313685, 20.959725476891293 76.6307503228712, -0.7491422835737467 76.07329515101684 M68.85109800029272 77.94544265991372 C50.75230951353795 79.00017113490287, 32.55102487962742 78.29236922664825, -0.7104170797392726 77.37760944491548 M-0.42751132883131504 77.52111152293456 C-1.5233305036673117 55.299672181480744, 1.3677349150529337 36.15168292852791, -0.926373178139329 -0.9596819635480642 M-0.802053022198379 78.01903100138826 C0.6254120393387561 58.051762379302346, 0.02753891783874085 37.89040482136438, -0.20935036521404982 0.4485207526013255" stroke="#495057" stroke-width="2" fill="none"></path></g><g transform="translate(550 347.9695671809177) rotate(0 55.5 25)"><text x="55.5" y="18" font-family="Virgil, Segoe UI Emoji" font-size="20px" fill="#495057" text-anchor="middle" style="white-space: pre;" direction="ltr">Reporte de</text><text x="55.5" y="43" font-family="Virgil, Segoe UI Emoji" font-size="20px" fill="#495057" text-anchor="middle" style="white-space: pre;" direction="ltr">Seguimiento</text></g><g><g transform="translate(586.5251572327034 274.6247206973803) rotate(0 18.50000000000018 16.75471698113222)"><path d="M0 0 C2.5015723270440486 1.6871069182390113, 11.867924528301995 7.33018867924536, 15.009433962264291 10.122641509434068 C18.150943396226587 12.915094339622776, 16.696540880503317 14.718553459119647, 18.84905660377378 16.754716981132248 C21.00157232704424 18.790880503144848, 25.946540880503385 20.187106918239213, 27.92452830188705 22.339622641509674 C29.902515723270717 24.492138364780136, 29.20440251572355 27.80817610062922, 30.71698113207577 29.669811320755024 C32.22955974842799 31.53144654088083, 35.9528301886796 32.86949685534625, 37.00000000000036 33.509433962264495 M0 0 C2.5015723270440486 1.6871069182390113, 11.867924528301995 7.33018867924536, 15.009433962264291 10.122641509434068 C18.150943396226587 12.915094339622776, 16.696540880503317 14.718553459119647, 18.84905660377378 16.754716981132248 C21.00157232704424 18.790880503144848, 25.946540880503385 20.187106918239213, 27.92452830188705 22.339622641509674 C29.902515723270717 24.492138364780136, 29.20440251572355 27.80817610062922, 30.71698113207577 29.669811320755024 C32.22955974842799 31.53144654088083, 35.9528301886796 32.86949685534625, 37.00000000000036 33.509433962264495" stroke="#495057" stroke-width="2" fill="none"></path></g></g><g><g transform="translate(588.9685534591181 271.483211263414) rotate(0 21.2924528301889 18.674528301886994)"><path d="M0 0 C2.8791681499940958 1.8804212526205628, 13.659309362762686 8.17010613207555, 17.275008899964575 11.282527515723377 C20.890708437166463 14.394948899371204, 19.21677346623967 16.405054376310424, 21.694197223211333 18.674528301886966 C24.171620980182997 20.944002227463507, 29.86299988133412 22.50021291928743, 32.13955144179456 24.899371069182635 C34.416103002255 27.29852921907784, 33.612614216210105 30.99452961215964, 35.35350658597398 33.06947720125819 C37.09439895573786 35.14442479035674, 41.37967248131049 36.635793370021304, 42.5849056603778 37.34905660377393 M0 0 C2.8791681499940958 1.8804212526205628, 13.659309362762686 8.17010613207555, 17.275008899964575 11.282527515723377 C20.890708437166463 14.394948899371204, 19.21677346623967 16.405054376310424, 21.694197223211333 18.674528301886966 C24.171620980182997 20.944002227463507, 29.86299988133412 22.50021291928743, 32.13955144179456 24.899371069182635 C34.416103002255 27.29852921907784, 33.612614216210105 30.99452961215964, 35.35350658597398 33.06947720125819 C37.09439895573786 35.14442479035674, 41.37967248131049 36.635793370021304, 42.5849056603778 37.34905660377393" stroke="#ced4da" stroke-width="2" fill="none"></path></g></g><g><g transform="translate(585.128930817611 280.90773956529847) rotate(0 17.103773584905827 14.311320754717144)"><path d="M0 0 C2.3127744155690295 1.4410704926624875, 10.972232111071675 6.261202830188739, 13.876646493414176 8.646422955974925 C16.78106087575668 11.03164308176111, 15.43642458763515 12.572097746331355, 17.42648629405501 14.311320754717118 C19.41654800047487 16.05054376310288, 23.988311380088057 17.24315382599598, 25.817016731933336 19.0817610062895 C27.645722083778615 20.920368186583023, 27.000296665480306 23.752817085954117, 28.398718405126694 25.34296383647824 C29.79714014477308 26.933110587002364, 33.23940904236416 28.07602856394157, 34.207547169811654 28.622641509434235 M0 0 C2.3127744155690295 1.4410704926624875, 10.972232111071675 6.261202830188739, 13.876646493414176 8.646422955974925 C16.78106087575668 11.03164308176111, 15.43642458763515 12.572097746331355, 17.42648629405501 14.311320754717118 C19.41654800047487 16.05054376310288, 23.988311380088057 17.24315382599598, 25.817016731933336 19.0817610062895 C27.645722083778615 20.920368186583023, 27.000296665480306 23.752817085954117, 28.398718405126694 25.34296383647824 C29.79714014477308 26.933110587002364, 33.23940904236416 28.07602856394157, 34.207547169811654 28.622641509434235" stroke="#ced4da" stroke-width="2" fill="none"></path></g></g><g><g transform="translate(582.901515151515 271.53781389348933) rotate(0 26.041999999999998 22.163999999999987)"><path d="M0 0 C0.25 6.833333333333333, -7.666666666666666 34, 1.5 41 C10.666666666666666 48, 46.083333333333336 41.833333333333336, 55 42 M0 0 C0.25 6.833333333333333, -7.666666666666666 34, 1.5 41 C10.666666666666666 48, 46.083333333333336 41.833333333333336, 55 42" stroke="#495057" stroke-width="2" fill="none"></path></g></g><g transform="translate(369.4402760517387 250) rotate(0 36.56640526547096 39.65030677701259)"><path d="M-1.7519783917814493 -1.748949682340026 C15.328395644306967 0.7958497671094646, 31.351402355566282 -1.2941359015497456, 73.02897727837784 -0.13493452034890652 M0.06355632562190294 -0.07260590512305498 C15.972293383927692 -1.4928913536487243, 33.628845574374594 -1.5175200822768828, 72.44441733764482 0.5721663562580943 M72.1737130915187 -0.5924983974546194 C72.01811901749814 16.476206010858995, 72.17573831500256 33.111951816267336, 73.61318475356323 79.44471370784383 M73.768011192549 -0.22886356431990862 C73.20748174413544 22.577787867596516, 72.85531422718864 46.328808615614015, 72.606619725693 79.54425338359367 M72.38366824736816 77.45344316569906 C45.03239257689357 77.21839904815661, 18.949799386277384 78.07115858823764, 0.0499542411416769 78.64178770391088 M72.42239345120264 78.7577574595977 C44.34089449844304 79.83973250488017, 15.87250608798081 79.23377633789752, -0.19967700820416212 78.69175053091537 M-0.926373178139329 78.34093159047704 C-1.4715466232256316 56.914983365878435, -1.233051928992691 36.888229858687055, 0.19713092409074306 -0.29316321574151516 M-0.20935036521404982 79.74913430662643 C1.1356059866067665 52.36762199417686, 1.490162636530091 26.532957025172117, -0.8775224564597011 -0.8864957662299275" stroke="#495057" stroke-width="2" fill="none"></path></g><g transform="translate(368.5598051252964 253.56695655743533) rotate(0 34.603958138375106 38.96023276967139)"><path d="M-0.7671170774847269 -1.508447265252471 L70.94997527472401 -1.0701088067144156 L69.98570736519719 78.67409596326125 L-1.5058070365339518 79.10900500895751" stroke="none" stroke-width="0" fill="#ffff"></path><path d="M-1.748949682340026 0.4498837646096945 C20.989081856854906 2.2006324654571667, 39.548976570488314 0.5024206167213575, 69.0729817564013 -1.4242317620664835 M-0.07260590512305498 -0.759646194986999 C16.10426665879407 0.1209804079202269, 33.065382806390396 -0.7323792019220735, 69.7800826330083 -0.9578170655295253 M68.61541787929559 -0.49014353193342686 C68.86616005139355 16.906831953714004, 69.30726988749508 34.959086598907334, 69.35201643056894 77.77899052309168 M68.9790527124303 0.5268867136910558 C67.95950880859644 19.107407447056044, 68.48129826997072 37.339185695374645, 69.45155610631878 78.65867864353878 M67.36074588842416 77.1586506526388 C44.90843161426108 78.15542764716213, 23.02810258484898 77.71118689827983, -0.6588258501142263 79.73785467552317 M68.6650601823228 77.71393143398983 C51.637227860654676 77.33926009291172, 33.0683827750095 77.22912367337703, -0.6088630231097341 77.49347700937015 M-0.9596819635480642 77.11240311073435 C-2.6690810248746937 47.455388997635794, -2.2916957065954273 18.326578848770644, -0.29316321574151516 0.7184129413217306 M0.4485207526013255 78.46571435792667 C-0.6260311811522044 61.24495725460075, 0.1780172676488363 41.89231557638468, -0.8864957662299275 -0.037131684832274914" stroke="#495057" stroke-width="2" fill="none"></path></g><g transform="translate(290 347.9695671809186) rotate(0 114.5 25)"><text x="114.5" y="18" font-family="Virgil, Segoe UI Emoji" font-size="20px" fill="#495057" text-anchor="middle" style="white-space: pre;" direction="ltr">Backlog de</text><text x="114.5" y="43" font-family="Virgil, Segoe UI Emoji" font-size="20px" fill="#495057" text-anchor="middle" style="white-space: pre;" direction="ltr">Riesgos e Impedimentos</text></g><g transform="translate(371.3888888888887 266.5328605135328) rotate(0 7.4424603174597905 10.018696581195968)"><path d="M8 0 L14.884920634919592 11 L8 20.03739316239187 L0 11" stroke="none" stroke-width="0" fill="#ced4da" fill-rule="evenodd"></path><path d="M8 0 C9.462364581400411 2.336411884520203, 10.924729162800821 4.672823769040406, 14.884920634919592 11 M8 0 C10.109234216251268 3.369911958184094, 12.218468432502537 6.739823916368188, 14.884920634919592 11 M14.884920634919592 11 C13.149609932022882 13.27783091666202, 11.414299229126172 15.555661833324042, 8 20.03739316239187 M14.884920634919592 11 C12.382113830202393 14.285273760313029, 9.879307025485193 17.570547520626057, 8 20.03739316239187 M8 20.03739316239187 C5.8996569134294985 17.66468988123571, 3.799313826858997 15.291986600079547, 0 11 M8 20.03739316239187 C6.168333663791418 17.968207059562516, 4.336667327582836 15.899020956733168, 0 11 M0 11 C2.0294507287442687 8.20950524797663, 4.058901457488537 5.419010495953261, 8 0 M0 11 C2.2325197078287604 7.930285401735454, 4.465039415657521 4.8605708034709085, 8 0" stroke="#495057" stroke-width="1" fill="none"></path></g><g transform="translate(376.5413614163608 268.93734769301955) rotate(0 2.0609890109888624 8.24395604395545)"><text x="0" y="13.487912087910917" font-family="Helvetica, Segoe UI Emoji" font-size="14.42692307692206px" fill="#495057" text-anchor="start" style="white-space: pre;" direction="ltr">!</text></g><g><g transform="translate(396.59299715219277 272.67201310216115) rotate(0 15.811352728424154 0.27799302734331377)"><path d="M0.9566271577030421 -1.0504705164581536 C6.182136743023845 -1.0672423038631373, 26.643967519476277 0.0063085999341335325, 31.622987770690635 0.10289016030747011 M-0.00028231384232646484 1.012428517062217 C5.038135839264693 1.175132338125289, 25.096118219773484 1.682762646395865, 30.642234832505746 1.597811037618849" stroke="#495057" stroke-width="1" fill="none"></path></g></g><g><g transform="translate(397.0550484589112 279.55814765068135) rotate(0 15.276928246780798 -0.3679607980502624)"><path d="M-1.0504705164581536 -0.06229995153844348 C4.182997171088907 -0.33351917527612984, 26.257505974694354 -0.8789195682851945, 31.604327010019734 -0.6706881847230761 M0.5988937330618502 -1.140611371435225 C5.649447992063912 -1.3659398907795246, 25.72676436398105 0.33278968986138974, 30.613777172482624 0.418104061447266" stroke="#495057" stroke-width="1" fill="none"></path></g></g><g><g transform="translate(397.4728290616222 301.12927805942854) rotate(0 15.769962020437717 -0.2232058742455365)"><path d="M-0.06229995153844348 -0.08096071220934387 C4.916720299675914 0.015620848163992715, 25.372277806475026 -0.527827683463541, 30.830748664989187 -0.47098115421813413 M-1.554146155435592 -1.169069031458348 C3.7183757631590986 -0.8335013550333377, 27.426791407446572 0.25820481421441094, 33.09407019631104 0.7226572829673024" stroke="#495057" stroke-width="1" fill="none"></path></g></g><g><g transform="translate(398.9348803683406 309.01541260794875) rotate(0 15.908009801186168 0.22834246756508492)"><path d="M-0.08096071220934387 -0.8545390572398901 C5.265860323116036 -0.6463076736777718, 25.72336969129668 1.0285445425660933, 31.03045569549413 1.1870883498342664 M-1.582603815458715 1.3112239923700693 C4.250814298905285 1.2070576491579719, 27.962206531799595 -0.41832754109039655, 33.398623417831075 -0.4087867233527869" stroke="#495057" stroke-width="1" fill="none"></path></g></g><g transform="translate(373.75072150072174 294.6371728678496) rotate(0 7.4424603174597905 10.018696581195968)"><path d="M8 0 L14.884920634919592 11 L8 20.03739316239187 L0 11" stroke="none" stroke-width="0" fill="#ced4da" fill-rule="evenodd"></path><path d="M8 0 C10.029732005317417 3.2428917110897606, 12.059464010634835 6.485783422179521, 14.884920634919592 11 M8 0 C9.591522940328947 2.542767487373203, 11.183045880657893 5.085534974746406, 14.884920634919592 11 M14.884920634919592 11 C12.654077524553264 13.928284484462923, 10.423234414186936 16.856568968925846, 8 20.03739316239187 M14.884920634919592 11 C13.181722637740036 13.235678630170558, 11.47852464056048 15.471357260341115, 8 20.03739316239187 M8 20.03739316239187 C5.580018303543329 17.303602407807993, 3.160036607086658 14.569811653224122, 0 11 M8 20.03739316239187 C5.759741606563329 17.506631176537425, 3.5194832131266587 14.975869190682978, 0 11 M0 11 C2.4788523696362974 7.591577991750091, 4.957704739272595 4.183155983500182, 8 0 M0 11 C1.6979820348322392 8.665274702105672, 3.3959640696644784 6.330549404211342, 8 0" stroke="#495057" stroke-width="1" fill="none"></path></g><g transform="translate(378.9031940281948 297.04166004733634) rotate(0 2.0609890109888624 8.24395604395545)"><text x="0" y="13.487912087910917" font-family="Helvetica, Segoe UI Emoji" font-size="14.42692307692206px" fill="#495057" text-anchor="start" style="white-space: pre;" direction="ltr">!</text></g><g transform="translate(94.48362063897457 30) rotate(0 22.785683208509283 24.375402345106295)"><path d="M15.978398038742124 0.3213696597165807 C20.371833486440533 -1.571008037256794, 27.52951525138061 -0.9174631890102849, 32.13197805384408 1.4765758106763158 C36.73444085630755 3.8706148103629165, 41.42438135311388 9.965952138920107, 43.59317485352294 14.685603657836184 C45.761968353932 19.405255176752263, 46.27819781144434 24.90261883027361, 45.14473905629844 29.794484924172778 C44.01128030115254 34.686351018071946, 40.76200632382024 40.93272610986841, 36.79242232264753 44.036800221231196 C32.822838321474826 47.14087433259398, 26.187580346282765 48.84680713841833, 21.327235049262214 48.418929592349485 C16.466889752241663 47.99105204628064, 11.079758446618662 45.047726009304164, 7.63035054052423 41.46953494481815 C4.1809426344297975 37.89134388033214, 1.3264487810568966 32.01553717735825, 0.6307876126956167 26.949783205433416 C-0.06487355566566322 21.88402923350858, 0.36832335806079053 15.650784323246903, 3.4563835303565504 11.075011113269149 C6.544443702652311 6.499237903291395, 16.138395294424043 1.14035936859778, 19.159148646470175 -0.5048560544331018 C22.179901998516307 -2.1500714774639835, 21.703119103317448 0.5257143540320394, 21.580903642633345 1.2037185750838582 M14.195336014497006 1.4481967993692741 C17.82818395656977 -0.9940807233752493, 22.559586703232913 -1.6066097676458015, 27.329612043058695 -0.027186536958836882 C32.09963738288448 1.5522366937281278, 39.89067852477732 6.530452947215687, 42.8154880534517 10.924736183491062 C45.74029758212608 15.319019419766438, 45.52330281044525 21.243277924119262, 44.87846921510497 26.338512880693415 C44.23363561976469 31.433747837267568, 42.482218747179274 37.83147266443573, 38.94648648141002 41.49614592293598 C35.410754215640765 45.16081918143623, 28.725023554441034 47.977262236275095, 23.664075620489438 48.326552431694935 C18.603127686537842 48.675842627114775, 12.493794774485687 46.76109204296511, 8.580798877700444 43.591887095455014 C4.6678029809152 40.42268214794492, 1.1601488251183807 34.293704419728144, 0.18610023977797852 29.31132274663437 C-0.7879483455624235 24.328941073540598, 0.364481313705705 18.40857783435937, 2.7365073656580314 13.697597056892368 C5.108533417610358 8.986616279425366, 12.635613287406004 2.6793627724696023, 14.418256551491936 1.0454380818323514 C16.20089981557787 -0.5884866088048997, 13.528300426933182 3.094275517232779, 13.432366950173627 3.894048913068861" stroke="none" stroke-width="0" fill="#f39c12"></path><path d="M30.96978648719366 0.79934856291203 C35.68854842333742 2.1395313907353275, 41.00884078468737 7.23118818483899, 43.325987162771526 12.056471784991928 C45.64313354085568 16.881755385144864, 45.76632105609346 24.521669253116638, 44.87266475569858 29.751050163829657 C43.9790084553037 34.98043107454267, 41.514454660808255 40.343040734114396, 37.96404936040226 43.43275724927003 C34.41364405999626 46.52247376442567, 28.431844629269925 48.354545535464624, 23.57023295326259 48.28934925476349 C18.708621277255254 48.22415297406236, 12.571808630094448 46.43800145179716, 8.794379304358241 43.04157956506323 C5.0169499786220335 39.6451576783293, 1.8058540560746041 33.06947505858431, 0.9056569988453482 27.910817934359915 C0.005459941616092423 22.752160810135518, 0.9547167482289987 16.52243702152848, 3.3931969609827064 12.089636819716853 C5.831677173736415 7.656836617905228, 10.723372261647818 3.005584405655828, 15.536538275367594 1.3140167234901625 C20.34970428908737 -0.37755095867550303, 29.208464112587343 1.424635730670765, 32.27219304330136 1.9402307267228593 C35.33592197401537 2.4558257227749536, 33.913473731745974 3.90785778285599, 33.91891185965167 4.407586699802728 M28.317305090709155 0.6651660122269121 C32.884824976221786 1.8076029217379446, 38.64395054845584 7.393098885569729, 41.299123174497836 11.89648420844178 C43.95429580053983 16.399869531313833, 44.60669069096188 22.617435818458148, 44.24834084696111 27.68547794945922 C43.88999100296035 32.75352008046029, 42.43162568918961 38.66283350234538, 39.14902411049326 42.30473699444821 C35.86642253179691 45.94664048655105, 29.389320350259986 49.122908603184676, 24.552731374783022 49.53689890207623 C19.716142399306058 49.95088920096779, 14.28147841523852 48.31736885982309, 10.129490257631481 44.78867878779754 C5.977502100024441 41.25998871577198, 0.6941291282123696 33.78837506353857, -0.359197570859223 28.364758469922897 C-1.4125242699308156 22.941141876307228, 1.648035851027394 16.82584254642211, 3.809530063201926 12.246979226103512 C5.9710242753764575 7.668115905784916, 8.27212664863162 2.685309998657061, 12.60976770218797 0.8915785480113172 C16.94740875574432 -0.9021529026344268, 27.231653270495695 1.3546677554378377, 29.835376384540023 1.4845905222290483 C32.439099498584355 1.614513289020259, 28.182542753260854 1.157808752124931, 28.23210638645394 1.671115148758581" stroke="#f39c12" stroke-width="4" fill="none"></path></g><g><g transform="translate(111.80165023323752 79.79729564547961) rotate(0 -6.829539051474455 49.91858510667748)"><path d="M5.203459324674773 0.8593748062849043 C4.968284362640901 11.561443116527492, 8.148297587245237 48.72269591026985, 3.7096261395381918 65.03365896202143 C-0.7290453081688533 81.34462201377302, -17.340290943063515 93.02493805134131, -21.428569361567497 98.72515311679439 M7.044870639290753 0.26494263424538067 C7.2309377537134285 10.523283578457752, 10.686606711962725 46.562455148175815, 5.834249619688668 63.11366930565316 C0.9818925274146109 79.66488346313051, -17.742117984262944 93.40183231361603, -22.069271914353592 99.57222757910945" stroke="#f39c12" stroke-width="4" fill="none"></path></g></g><g><g transform="translate(116.69903550348204 147.8678552284391) rotate(0 9.697928817614809 13.111447378166872)"><path d="M0.8593748062849043 -1.1187258213758469 C2.376512415022641 0.27150174488703716, 7.213877145254715 2.913307748121059, 9.924074752992333 7.656698814635295 C12.63427236072995 12.40008988114953, 15.836180129766637 24.26509997220309, 17.12056045271061 27.34162057770957 M-0.14859214975498625 0.9083391770627349 C1.1724290559394805 1.973675441634087, 5.896440725985643 1.5699132108416762, 9.178614381775573 5.659119810457471 C12.460788037565502 9.748326410073267, 18.128471116701316 21.88333029598528, 19.544449784984586 25.443578774757505" stroke="#f39c12" stroke-width="4" fill="none"></path></g></g><g><g transform="translate(78.28259863960602 116.86338712733414) rotate(0 37.48683031775886 -3.289405975740806)"><path d="M-1.1187258213758469 2.6505398581390573 C5.923765299235075 0.5916415068809351, 28.701761427678626 -8.924035635734505, 41.570280140723526 -9.229351809620857 C54.438798853768425 -9.534667983507209, 70.54300175920444 -1.1057671327839798, 76.09238645689355 0.8186428148209444 M0.49480439306236823 1.807521005210404 C7.460015174968705 -0.20060695511992677, 28.20117123322421 -8.18331214487978, 40.74723042169721 -8.16233892873861 C53.29328961017021 -8.14136571259744, 70.07662880764659 0.5154882177666569, 75.7711595239004 1.9333603020574295" stroke="#f39c12" stroke-width="4" fill="none"></path></g></g><g transform="translate(10 186.58544938566683) rotate(0 110.00722139092338 31.79399462165418)"><text x="110.00722139092338" y="21.793994621654164" font-family="Virgil, Segoe UI Emoji" font-size="25.43519569732332px" fill="#f39c12" text-anchor="middle" style="white-space: pre;" direction="ltr">Administrador de </text><text x="110.00722139092338" y="53.58798924330833" font-family="Virgil, Segoe UI Emoji" font-size="25.43519569732332px" fill="#f39c12" text-anchor="middle" style="white-space: pre;" direction="ltr">Proyecto</text></g></svg>