<svg version="1.1" xmlns="http://www.w3.org/2000/svg" viewBox="0 0 1222.535714285715 986.5238095238101" width="1222.535714285715" height="986.5238095238101">
  <!-- svg-source:excalidraw -->
  
  <defs>
    <style>
      @font-face {
        font-family: "Virgil";
        src: url("https://excalidraw.com/FG_Virgil.woff2");
      }
      @font-face {
        font-family: "Cascadia";
        src: url("https://excalidraw.com/Cascadia.woff2");
      }
    </style>
  </defs>
  <rect x="0" y="0" width="1222.535714285715" height="986.5238095238101" fill="#ffffff"></rect><g transform="translate(756.1309523809525 10) rotate(0 228.20238095238116 483.26190476190504)"><path d="M0 0 C96.72533375031679 0, 193.45066750063359 0, 456.4047619047623 0 M456.4047619047623 0 C456.4047619047623 352.67627739065915, 456.4047619047623 705.3525547813183, 456.4047619047623 966.5238095238099 M456.4047619047623 966.5238095238099 C302.8590277612234 966.5238095238099, 149.3132936176845 966.5238095238099, 0 966.5238095238099 M0 966.5238095238099 C0 631.7087076865804, 0 296.89360584935093, 0 0" stroke="#000000" stroke-width="4.5" fill="none" stroke-dasharray="12 8"></path></g><g transform="translate(805.0983307250932 151.92857142857065) rotate(0 182.4770474700045 42.327073552425645)"><path d="M0 0 C0 0, 0 0, 0 0 M0 0 C0 0, 0 0, 0 0 M-1.3181451799162414 25.77437745006299 C5.611307325825543 16.901682601288833, 12.855743741197383 7.113420128509478, 22.617461074421072 1.2607451746403697 M0.2562275465763424 24.320257973573266 C6.813034450026583 17.815448524487046, 12.884558373829833 10.072267797885324, 21.4569583305138 0.6327940266742829 M1.033784519880932 47.113371527426764 C13.436598255391385 37.29389115805348, 23.054542608841103 23.73786420685106, 43.7907845774626 0.5567822873919255 M-0.7158378968016095 49.089695844472274 C12.973659956253545 32.89227025836931, 28.20165229156778 14.36223943041481, 42.62402331605159 -0.17606728353062806 M-1.3208842983284583 74.85520492898671 C14.416622841433078 55.81402681483243, 29.767720141709543 39.19107299094281, 65.54743442022581 1.5985641053436765 M-0.18979471249520685 73.68060268586872 C15.649570706458547 55.20470239864515, 30.094242770666273 37.710972255893914, 63.621571738173856 0.28103877534405086 M6.519824015348398 91.22568978249191 C35.87983439375937 58.70789021215633, 61.36063991781024 24.738790335993798, 86.74208589567945 -1.582842476973127 M6.885472153685235 89.42697543996482 C27.576925898729716 65.36302376846253, 47.92649705503588 40.147694191495034, 85.72978548164622 -0.3361282752173054 M28.04853615974735 89.48683385935479 C47.719249979082136 66.18747060147396, 68.6684923063736 44.89643384195854, 106.07121117179227 0.4205825599727646 M28.12340849237244 89.64920200512611 C53.69204308775381 58.890336220489054, 81.267031069274 28.661084640653968, 105.7610729937343 -0.25941047623032176 M50.82549163605548 89.70185252423036 C81.4881321724561 55.35469604883269, 110.6311780611427 16.891302684484458, 127.10452026254251 -1.5389780590646254 M48.14550258405037 89.95032318546075 C68.44455800281216 70.4709024058347, 86.01343520422483 49.76240045010753, 127.06026025521322 -0.013791850987850296 M71.52958448724155 90.7650939216499 C99.75434278599906 54.64729171865373, 129.73842479622658 20.657075941658377, 148.59669714387994 1.128482775000407 M69.60107693848465 89.77720787745312 C101.80075457789812 55.641699141510045, 131.41758917539767 20.52816056329175, 148.78507689632963 0.407513274048938 M92.55650563127429 91.0728593211446 C115.80014774935441 63.73630563473559, 135.40426306072868 38.56506154088912, 170.2385455797828 0.5915540369218775 M90.7341806279409 89.62262341508755 C123.10821973427659 53.00849837414495, 152.95475751522935 18.456801027317837, 169.62605202285863 0.915067750587184 M111.70624286112246 89.83590311724576 C135.96838190774957 63.30752089616246, 162.80748490259782 32.54656713050826, 190.96872523821986 0.8910682462310433 M113.03983928718475 89.86898556984845 C142.3974983301315 53.19309730005206, 173.47270886546013 18.998273669277594, 191.08700033206588 0.14812328761126992 M133.8705808447548 90.39193282948463 C152.28343846126336 69.03032845663769, 169.81894042880367 49.22782718535428, 210.0051926621598 0.0073110474591686625 M133.92030511348182 90.6321085507202 C158.4468317528803 61.15762435409992, 182.35212389384682 32.39187517893259, 212.48521308371693 -0.9269199683944152 M156.06454209614958 90.27281868261522 C177.83977079015386 63.07796415384756, 201.78512974675374 33.51516304923893, 234.53270126957148 1.1725212101374893 M153.68524783760722 91.35966458440996 C178.41484795737566 61.42296039955855, 204.16433402455982 32.14185360001784, 233.6077081000775 0.8272365665544896 M177.73812309125654 89.49825528572322 C192.6869633618555 71.08635722183726, 210.1820290882144 51.40558364054588, 253.39030135342352 -1.816609371202759 M174.8322408398076 89.6560955944565 C192.87937074734543 71.15820454104826, 209.7404487968223 51.440049138842355, 254.36747976591312 -0.43746008605765496 M198.52744009405393 92.41651911356266 C215.62015795568902 71.6181874965095, 230.6587252827827 50.12271916580527, 276.7588400816848 -1.2864356770303118 M197.7666569758581 90.65462068256701 C223.18052008566454 61.52204584567726, 247.16601957571515 32.23193942868123, 275.4597490284895 0.2893355327535403 M216.5664652725105 91.99813018566482 C245.88117991046525 55.83451111106224, 272.5185492659564 23.96583438909572, 297.84846149732397 1.626140437186109 M218.0821546930243 89.8421478077259 C241.16379012450574 64.83430912173033, 264.04566749796254 38.37394626316746, 296.0182133975722 -0.2798826805275212 M241.51846766959503 91.9030616465609 C263.9017648661098 62.85078584878423, 287.03238484087836 35.66410211880047, 316.58610651830986 0.2861702409776967 M239.5608690010719 90.65773336641746 C264.09473881219725 62.439896516847725, 288.7403119164645 35.939129576185536, 318.2712969454269 0.11327760808347875 M262.2635132032762 89.79323976578218 C287.87036128303157 60.484418692793795, 314.0263111819801 27.672178149032455, 341.30301293761113 -0.12684187112427026 M260.8296614722664 90.33633219262612 C290.4147781326185 55.18093624589909, 320.911183177247 18.55653633404917, 339.19840030681917 0.11685717007094354 M280.5859646665228 90.6450439378599 C300.47247122922494 69.20551575423718, 321.15689323485714 47.0387187037343, 359.76615639420606 1.448271200634224 M283.0163702413735 90.75254755783624 C313.43294763924274 55.89036241729756, 342.6008186719199 19.55482062992499, 360.53009165002413 -0.6329952053579859 M302.8619817273036 90.06180668232531 C330.9470837517029 56.871977722905264, 357.44798359272545 27.206086892621926, 372.2733371701489 8.549806322789408 M302.4060600056589 90.2643811710322 C331.30988699720007 58.51136583493824, 357.7221967812506 27.290257366737976, 373.81194347389294 8.614694350286044 M325.7470209285873 91.5863136437097 C339.21126354749424 74.70794030448515, 352.09574229299824 58.64878191591719, 375.2770343645128 33.97743264732301 M324.09727202488807 90.5569831786984 C333.75680083297385 77.84497245637638, 345.8656518202893 66.88266418152554, 374.9971367817956 33.04121730343789 M343.8633356883427 90.01330359154426 C353.5985255174649 80.46588729718061, 362.6147504367657 69.11639861938755, 373.3779128790671 55.44456588408801 M346.65827412132677 90.48640216481917 C356.9675867187164 78.18004220794089, 366.7155279432975 64.2659125157382, 374.40871806729825 57.44180699090364" stroke="#ced4da" stroke-width="2" fill="none"></path><path d="M1.1603303234933273 0.24979913398573741 C110.72475778965551 -1.2252871925410689, 221.05166239133098 -2.168968964058942, 364.17937720757874 0.30642065348756836 M365.6962871804409 -1.6383621115237474 C364.4057233399225 28.569577224975532, 366.7608706420732 59.05052490803243, 366.6728008642368 84.307815506614 M365.8145505615172 85.31260378429509 C288.2257070108491 86.19264658453653, 211.0945705271657 84.70739972187401, -0.6586200595035611 83.85561908275442 M1.324982913210988 82.90435071245507 C-0.14179348510274714 50.579913713502215, 1.1843525810860651 20.724468947825727, -1.0452727358788252 -0.36023360677063465" stroke="#000000" stroke-width="4.5" fill="none" stroke-dasharray="12 8"></path></g><g transform="translate(877.7365675534696 168.4723898949269) rotate(0 105.81768388106397 22.147887323943678)"><text x="105.81768388106397" y="31" font-family="Virgil, Segoe UI Emoji" font-size="35.43661971830979px" fill="#000000" text-anchor="middle" style="white-space: pre;" direction="ltr">Identificado</text></g><g transform="translate(830.5555555555557 17.42857142857065) rotate(0 166.5 55)"><text x="166.5" y="39" font-family="Virgil, Segoe UI Emoji" font-size="43.55999999999991px" fill="#000000" text-anchor="middle" style="white-space: pre;" direction="ltr">Estados de un </text><text x="166.5" y="94" font-family="Virgil, Segoe UI Emoji" font-size="43.55999999999991px" fill="#000000" text-anchor="middle" style="white-space: pre;" direction="ltr">Elemento</text></g><g transform="translate(806.6896191966626 270.1014978761468) rotate(0 182.4770474700045 42.327073552425645)"><path d="M0 0 C0 0, 0 0, 0 0 M0 0 C0 0, 0 0, 0 0 M-1.3048467280157592 23.70394913823819 C6.172298982464226 19.14409073684068, 10.141589478219814 12.469791365679034, 19.565228749344016 -1.0458186199725148 M0.11675294602282982 23.741814654967843 C6.4852249652608 16.90947720240406, 10.927148185569365 9.76368303851834, 21.73869211161312 0.20414147192384036 M1.1823731176554375 47.63357470058732 C14.193437712113107 31.052564883972636, 27.12894976451889 15.082773970693381, 43.25903526935332 0.4859305441706425 M-1.0995780536905713 49.56858265739761 C13.814923171460157 31.331020293079725, 28.00519909046544 16.090146813886534, 42.62758651151859 -0.17705889620343385 M-0.5751525273361793 72.07352249728886 C16.83577911196333 52.26440377928726, 31.478139473493776 33.91255061045818, 62.34763053142805 -0.13495205132975485 M-0.6126917831414929 72.0161055189967 C19.465020834926104 49.657964883203945, 40.41853994671868 27.828179701939156, 63.01789330308665 0.1192986809207568 M6.1897863619022 91.97812028109192 C21.959265388890685 70.5975166745612, 41.60642354674107 49.99713985457924, 84.48842420353697 -0.08638388694245691 M6.71153462435975 91.28849736946731 C25.55630644472329 67.0175756078173, 45.34499803017942 44.9880356771289, 85.30405218358294 -0.9081590877192127 M28.272550859206426 90.9003914484089 C45.75077889564545 71.0414332590863, 59.422638385915675 52.569139330720574, 104.61812282864881 -1.6068293181362137 M28.35080477194588 90.29501329467499 C49.71780987304449 63.99433911127318, 72.8954547201696 37.08901128415368, 106.19397941277307 0.5663429443610326 M47.97361484076358 90.75706698889482 C81.13317078575565 54.270375565990015, 110.01996401364282 21.88170425644904, 127.98417079574182 0.07191000484299792 M49.57211475260086 89.94631128622788 C79.03610054220006 55.61918183022572, 110.63856263871521 20.94519298044399, 126.70925878393217 0.7941879413686408 M70.14960672454242 89.85851067208097 C101.3774323897291 57.58502377336904, 131.05455120526634 23.245500480788422, 146.45648645576577 -0.9816431839191182 M69.45154488859032 89.7156274281104 C93.89875430162509 62.687189822013494, 116.60436477788397 36.60336376207304, 148.46562773980688 0.2772787643424408 M92.81145180351169 89.57953939249852 C111.38880377828184 69.95298415626971, 128.3609679101856 48.758629547923356, 170.2786079476989 -1.5578842846685461 M91.44115206467987 89.84084624180683 C109.68178177130878 70.55992737548763, 126.89972387604824 51.657147900168155, 170.3928731986723 0.14004545248957356 M110.81187224564013 89.67192316967878 C129.09455201527507 71.67113803476656, 145.56654011339845 51.414978508057914, 192.37942931451 0.9875348471259713 M112.02521972813514 89.16825068630162 C129.64553450916412 70.17649615065662, 146.32060196931232 49.65166031837021, 191.0153176702941 -0.04564309770557884 M133.5328870938965 89.576885148153 C159.00568241079 62.975060071754065, 181.79923298042547 35.860962092819335, 211.4046414741677 0.8009154809956982 M134.37650788872176 89.99627215807914 C158.78664586912126 60.906297108842054, 183.60291571390226 32.575159482753186, 212.45201022693783 0.3379804477413728 M155.91725323725905 92.49231117767519 C177.61704115587872 62.487530055320846, 200.2194456166793 35.73775074411849, 233.4042322196409 0.8430120114718704 M154.35644408971484 90.67395007134652 C171.68300950046697 68.8668773696732, 189.58581758736193 47.36699180942694, 234.0729765033692 -0.2016681396852107 M174.78020152667753 91.66641149233104 C205.28380158073048 55.51146362437074, 237.4975890035601 19.01983021090203, 255.51998621889823 0.20153195808572377 M174.79560952386103 91.42584353714258 C200.06133082946374 64.05568414277417, 222.25701499666738 37.27468512168259, 255.15546869685375 0.5762253489990314 M196.5605826011302 90.23847819187458 C227.42597518550983 54.50663573481376, 254.47662573925572 22.332875211632455, 275.67298501490853 -0.5963640346314776 M196.21363485943544 90.72403884467448 C216.18866277460316 69.29951940226071, 234.94668483604144 46.165370739380414, 276.5402155671572 -0.5103764397215116 M217.63260300358579 91.53254692083709 C239.66122412911832 67.15575549559796, 259.1272992962057 43.81084774930072, 296.25110702564047 -0.2715621971484552 M219.0996863562037 91.11306114042662 C240.69099204623996 64.17898610964696, 261.6133228420052 40.28175883847762, 297.28767243654505 -0.22261242186243635 M239.3372661520131 91.12460644874977 C266.0648358464654 57.96890705278095, 292.0424244734906 27.47609916759307, 317.7965275440629 0.5195043650659841 M239.91265683643147 89.80833400838333 C260.6195045656076 65.7211723158208, 281.9082840281614 41.560384982512495, 318.33427118978307 -0.05697307593942469 M261.6698723393808 90.1550986701439 C285.0607184542686 62.06302729104408, 312.767264177071 31.640659534883525, 338.6932187381444 -1.5026443284568813 M260.7374156848843 89.539929470029 C279.2685387155355 69.64800121768567, 296.1271669959846 50.012465828797474, 339.14867027413675 -0.4015504429680732 M282.96751873365764 90.64141860455072 C300.4032661627147 67.4060020280281, 316.64675518674966 45.877220083394675, 360.1983906218634 1.8266744470369645 M281.9410588488278 90.396317984348 C303.29329794774225 64.18190630312316, 325.91282498841844 40.15700224640035, 360.73194567038126 1.062421453758759 M301.5965993778125 88.79041439650149 C328.1313273314982 60.88584176353911, 351.32401232324366 33.416681113552116, 373.537577852274 6.71177318308375 M303.82915883802775 90.66811844782472 C330.7902086449091 57.554959096363454, 360.26900412987965 24.666606201852403, 373.68142768986775 8.487283670230426 M323.64030518981394 90.31088731552748 C338.912342448111 75.77541395571099, 351.4694468238392 59.49285623132182, 373.52849390344943 34.18083665666521 M325.3020147247496 90.69184819444357 C340.5473744405302 71.73776814138057, 356.93525765729913 51.5021197710808, 373.7833051484662 32.17444486038178 M344.5861239626309 91.72609175615989 C356.11172883083725 81.15045870130243, 364.515388060255 70.40948488284953, 376.57453805215897 55.7382962026343 M345.5109021437591 89.69367299568884 C354.9083794079086 79.97663728056781, 362.73880852111347 69.46769448530148, 374.9748823522428 56.75800554851892" stroke="#ced4da" stroke-width="2" fill="none"></path><path d="M0.7157490588733851 0.8466503906571764 C113.58687546614014 0.6886930138778666, 229.1141429758358 1.3723864628854492, 364.04827703168206 -0.24148871020420204 M363.12157877828406 -1.3876426238566637 C365.6111917865031 31.320871786174706, 366.24659536001616 67.93758741385744, 364.1087831511669 84.6087879087098 M363.84873571753997 85.29334974882357 C284.4986449959924 87.34625682459937, 202.17131307000884 87.04048114258325, 0.7900406226540483 83.96519921197736 M0.4021852929145098 86.54042138115243 C-0.061950653558086155 55.17460116708148, -0.013958960538219212 28.262575432380636, 1.5548883993178606 0.017923472449183464" stroke="#000000" stroke-width="4.5" fill="none" stroke-dasharray="12 8"></path></g><g transform="translate(913.1455399061036 286.64531634250307) rotate(0 72 22)"><text x="72" y="31" font-family="Virgil, Segoe UI Emoji" font-size="35.43661971830979px" fill="#000000" text-anchor="middle" style="white-space: pre;" direction="ltr">Acotado</text></g><g transform="translate(809.0229525299961 388.43483120947894) rotate(0 182.4770474700045 42.327073552425645)"><path d="M0 0 C0 0, 0 0, 0 0 M0 0 C0 0, 0 0, 0 0 M-0.15156119110069532 25.95010156528568 C6.757623783917221 19.61091096767435, 10.716771578896521 10.90704203839244, 20.803689442852402 0.6903177233576301 M-0.35713490171364803 24.701516567445456 C7.619345530587805 16.739643298042502, 14.849577238934419 8.465157166716086, 20.747118075655663 -0.06614823041712015 M-0.777767911553461 49.665953757845685 C10.945167668937472 38.53363452504347, 17.09299572307692 27.92694227903481, 42.173532439950634 -1.8211475528449768 M-0.4588540969417281 47.954698880807385 C11.336495715769967 34.62810702319596, 24.72491533546668 19.506666316997574, 42.20681438929938 0.7318294605567104 M-1.1399272454717746 73.83310337396709 C24.24252168506035 46.11133179485688, 43.79838005781134 22.074764901543375, 64.74737209537406 1.790081186455346 M0.22574143597841356 72.02602565599976 C17.68414129934338 51.81238998577403, 36.11692797267431 32.095600446068445, 64.17014897046019 0.6526184689743886 M4.969234308599674 90.70995531483649 C22.48798762972046 70.15755469506598, 40.89097242139316 50.116587795149044, 84.50158780365393 -0.6662426407726514 M5.656641262955212 90.53104901100605 C33.02052046748028 60.70471986891493, 58.87884833813007 31.585261734298584, 85.01172509062246 0.17073661710153942 M26.507797551059234 88.4934538753038 C55.52142911362424 59.47981711535974, 83.82466643404292 27.876271319430558, 108.0395120843215 0.27393125843978083 M26.61983756134014 90.77679014497303 C57.96423975094393 54.82419852526589, 89.53263695896004 19.74889371906201, 105.58954445877058 -0.11332171029621207 M50.28661233465649 89.45909469346154 C77.30541642783943 54.632513600368924, 108.69712522204593 22.03711186940916, 125.2478715529175 0.17115963228416575 M48.36053687333591 89.87050128779012 C74.82001599968322 60.11724457375508, 101.72859316934876 30.158951053569794, 127.43269819239839 -0.0621259857304679 M69.6453393039227 88.36584993727848 C92.07632470517774 65.65343973861518, 111.81011997955957 39.129954495314855, 147.2335230369542 -0.6488326367162927 M70.7904518454269 90.09334088672296 C97.94187855689475 59.50600895344704, 124.41017041590571 26.903786051913173, 147.2093529334713 0.6361021401188509 M92.67559222838909 91.50198864972332 C114.92458090952907 62.93447748736318, 138.40156813749837 34.72557837777859, 167.69959940197236 -0.8793950503700785 M91.24219356159747 89.9149439515371 C121.24284124630012 55.175894012186696, 151.32451235491024 19.94148887228799, 169.6341466744832 -0.3480036802598647 M111.53343800258693 88.37257674876484 C138.13958830253446 60.15149900376685, 168.29704237900305 26.485125134824656, 188.88224566750324 0.4357101842915654 M113.31302154333201 90.64967205449823 C140.61530766233358 56.104106061318674, 170.26540175546006 22.524475334161096, 189.93617487441844 0.6524571878990173 M133.75189664604747 89.38697702737181 C155.72083894701376 64.19374042364089, 180.0117294574847 38.846150599607164, 210.207059978078 0.34451773523740314 M134.7085937496149 90.11286333037197 C163.6678383820533 56.499701192397865, 194.48025006305045 22.064109229156657, 212.04668142976135 0.7116119418611362 M154.89738227431144 90.30105873373574 C176.9103472548709 68.38392515997955, 196.84990494903013 41.48528413058555, 231.60159360322803 1.6743591454361706 M155.43065754793997 90.03179205664671 C180.3875849276551 60.69951562723653, 206.44411180577163 29.80785264157221, 232.4428086744964 -0.03293565860789727 M176.50643921489112 90.88585925037981 C198.00946185174135 64.64083047347427, 219.3991504799036 40.61110804147818, 254.80785093748443 0.7193628328566035 M176.24503583027266 90.6830803326425 C200.29002533711366 62.290355789155555, 223.6738093328368 35.137216715825666, 254.99134738010787 0.2761447087575277 M195.46188783332724 91.14334157549555 C217.85242110427404 66.1888964409747, 238.77087546640482 43.94184127659156, 274.6947895003786 0.9279540904674661 M197.5890228391068 90.07720556084777 C218.30902410793044 67.24024965010676, 238.8392722641117 42.20367023148643, 274.7924867555802 -1.1278400712769496 M217.92956064915106 89.97505600205176 C241.34929485734352 63.43373302501022, 263.7873137115744 33.682209565822035, 296.57081993644164 0.5903550862375369 M218.0393702834268 90.59591212602817 C245.2574288708234 56.624368557197194, 274.9996841677704 23.70244621204941, 297.02356444739775 -0.9793565514456759 M240.01474330689385 89.62434969801711 C262.6087035360299 66.30942292625377, 281.5783680127474 40.28748671274354, 319.49630601520494 -1.4739151368644912 M240.49997830971702 90.40317097544926 C259.02797233750675 67.82814091450443, 280.23939946594163 45.29659576137093, 318.7828165395449 -0.32439472198308295 M259.0746745760868 89.3638667063604 C281.6763854859199 68.22153830100913, 298.45360856192735 44.53901696164622, 337.5960646311996 -2.2285406608698395 M260.0456455019618 91.1014296188767 C279.19392356062394 69.67460314662326, 299.0348513746888 48.179336493555, 339.933127553506 0.13578198937648267 M283.0310463512612 89.18304794505036 C312.65663729963705 54.17302789533856, 344.7894529621982 19.495850714247595, 358.7158067749665 0.021800887413007786 M282.76581888164554 90.3878621285761 C308.6521249202282 61.097534248144385, 333.1212689601691 31.617134731303715, 360.2897214192749 0.45559629762141185 M301.6825036519483 91.47563120705576 C324.8890067761979 63.03198888797936, 348.29692378969696 34.97323163402517, 373.1422243301223 6.601905397957779 M303.60834390775267 89.71061913931311 C320.0236891620155 70.11955603550572, 335.47352439013235 52.86189290986938, 373.8714982724215 9.384374122022308 M324.0171446226793 88.72715116034536 C336.0353255852885 78.08727721074183, 346.99962900817354 63.89344783730195, 372.85184424730267 31.625284796183706 M325.22321447676745 90.92507784835337 C342.5963873749872 69.02483842847518, 362.05887894678256 47.51234040584609, 374.68113862803455 33.49433710479528 M345.5250205329856 89.20243934788786 C354.39454706041823 78.40495643257336, 365.7312281303734 64.84545353219413, 375.1295355298394 56.021541315381256 M345.8063229226744 89.95009201546245 C355.52964891707404 79.67782035659972, 365.377690528962 68.53598662612805, 373.854860366399 56.176726883527664" stroke="#ced4da" stroke-width="2" fill="none"></path><path d="M0.6285772587692879 0.6686475432613899 C78.37033336898756 0.15764405455505703, 157.8374997393771 0.043146690336978266, 364.02686683253245 -1.1861058167302752 M366.5636240161531 1.5780345518141985 C366.49116239277504 28.16248153399041, 365.76981845823906 57.61646777703088, 364.3469188727014 83.65820210010484 M364.47972990707075 85.12430134319578 C240.7685455532529 86.32603563999665, 118.21530935303952 84.43417662132164, -1.068535522916904 85.22905543669074 M1.461832283064723 84.76028292209581 C-0.6848833003893484 57.42384302074133, 0.7808245381459604 30.302950681032357, -1.0902019161731005 -1.1366955917328596" stroke="#000000" stroke-width="4.5" fill="none" stroke-dasharray="12 8"></path></g><g transform="translate(894.9788732394367 404.9786496758352) rotate(0 92.5 22)"><text x="92.5" y="31" font-family="Virgil, Segoe UI Emoji" font-size="35.43661971830979px" fill="#000000" text-anchor="middle" style="white-space: pre;" direction="ltr">Preparado</text></g><g transform="translate(810.5606416275442 506.8483679856927) rotate(0 182.4770474700045 42.327073552425645)"><path d="M0 0 C0 0, 0 0, 0 0 M0 0 C0 0, 0 0, 0 0 M1.643925344776294 23.8806748834393 C5.30867760183335 19.480430678990214, 10.761156091960519 10.434591895889282, 22.91442577941146 0.04401976560945542 M-0.672689891215482 24.54661832442051 C4.895524506535436 17.9464904851621, 11.600812501415511 12.139023537248683, 21.872419364096487 -0.6476539034232971 M-0.5313265807927436 49.63543090843491 C9.462561387764048 36.70189589634157, 20.573428403260653 28.148418133793268, 42.81258181724303 1.731343728336597 M-0.09626767132439085 48.36404985529266 C7.623128740358197 38.23212573745451, 16.89219361946595 28.264045052717748, 41.7837422765752 0.6178761514230615 M0.3988957295379052 74.35693006622044 C18.084481628125932 51.55631388372652, 36.031352079707325 28.464633770697922, 64.95965257370253 0.7810505798576841 M-0.6020896069520703 73.79375235861538 C21.8286585695374 48.5662086352815, 42.691043354388775 24.520725551694518, 64.25281302993525 -1.070566610197865 M5.5494585506610505 90.71434385954498 C23.255309701874772 69.89609746086784, 41.209761500369595 49.94203587104463, 83.9857039667587 1.1050665897039664 M6.613889043591165 89.83866808909087 C29.242552278970805 65.95964130458668, 50.28943985774953 40.01369291802874, 85.03149319644228 0.39697264569829827 M27.68837920641254 88.35053943482094 C44.91203907648885 70.0855901176013, 60.694835390734305 52.749266658007144, 107.42509878938031 -2.070228847593306 M26.88679375843804 91.01938025758469 C45.993479931500374 67.10135026669025, 67.03625360508016 44.60189254798358, 106.37262091086191 -0.2299028094040736 M48.71378782297946 91.64709153170335 C66.54377096022701 69.12909455062727, 84.692158743136 47.07801271049798, 126.74793768054559 1.86320636771989 M49.52854250557251 90.67037498070496 C78.63604907062233 56.54729553119974, 107.00895903182311 22.707321136059747, 127.03020184146925 1.0365183137021674 M70.70496906833057 89.75420766972348 C95.06568786209922 60.18206387938993, 122.9098828958941 28.643628297626, 149.6717952412043 1.1887387197292583 M69.84763748226021 89.50121646743611 C87.94870212995808 69.39718361258721, 104.30642812840776 49.940847115848236, 148.53989530601095 1.2469670010558502 M90.5205044854346 91.26154849341252 C108.96932715836546 68.88896107295353, 124.18086815269703 50.93864492087152, 167.9128658603347 1.7058165581888147 M91.71605744826675 89.79861736426243 C117.22667293192217 60.83096177380556, 142.32053530419694 31.619058283151702, 169.93891009776212 0.8872014168641158 M111.48577249226031 91.51072777230176 C128.53285181919745 69.28274897898254, 144.58848511311598 51.801433318975235, 189.49769983090556 1.0236317776298165 M112.22550772585777 89.27018875516835 C141.32095166805496 58.80263657037415, 168.66523372023408 26.78643818672692, 190.04649060148841 -0.2970814173886538 M133.08044838177645 89.90781240092247 C163.3848673421836 56.31833437724836, 191.94727954687664 20.022196750515988, 213.79464432088554 0.6283293975835278 M133.34367019979888 89.88819016163825 C163.22476106360608 56.65341251308731, 192.87206241187667 22.66623829934275, 211.46410776445538 -0.7017860427180693 M153.96994529296126 89.99053197902865 C174.23521446882867 69.66088800543733, 195.39976618115864 45.99207048445024, 233.2013433732435 -0.8044924374188156 M153.9143942883652 90.48798912287927 C178.49284506572548 62.426737213370544, 201.9423898946082 36.040259572928825, 232.23170909642874 -0.020668562639770016 M176.3171503267645 89.72194049070598 C200.72696811078393 62.8282806180021, 221.06335068317654 37.93947347279201, 252.8322379059481 -0.09728245784597789 M175.93818305930338 90.59297287493021 C200.00312643402026 63.92437975967351, 223.14080139079118 36.70479897673876, 254.48396866967403 0.5984133568306049 M197.53357037216443 89.3311737857085 C220.47445519740816 62.84369043172106, 242.3373791386507 37.3700180244984, 276.20606571196817 -0.25803626916669486 M197.29208905588854 90.78655583199824 C212.79800282524104 69.10955089859642, 230.9045596192009 50.86267029491976, 276.10653711895696 -0.6027495128225553 M218.5910682221298 89.6071112585675 C245.5370431500394 55.71371383731918, 277.1640638963445 23.30891316207145, 296.93336145927236 0.8322036481503119 M218.0102004128863 90.53709126556777 C238.91686356351678 64.09909712304164, 261.55247251743185 39.28811459015552, 297.39229164154307 -0.14896796261484724 M239.05330354462936 91.96558542881417 C257.2492578350504 68.82827379657014, 275.41968783282863 47.97973192853254, 316.40395669082955 -0.26815206136376446 M240.2838318275623 90.7963308846231 C257.4931463651905 68.95834564977136, 274.4162153183807 49.705805465371334, 318.6975859971981 -0.48790434606195277 M262.7632328826318 91.76188194097978 C290.4435446679345 55.071310034576086, 320.7763304845007 20.2935840833686, 339.47447982460835 -1.2487396281776455 M260.1177745596821 90.84317483564865 C278.6292150034764 67.57431128620178, 298.3394726665208 47.57050172938656, 339.0985005081875 -0.14632257917946845 M281.53060965410594 89.60323956459558 C300.656982959035 67.21120226303925, 323.3312720237991 44.55670957588075, 359.4997971245871 0.01996742246268468 M281.9865464315114 90.1274217026288 C305.5613932139041 62.54825079851995, 330.1774164580811 33.942919982355875, 359.3910330302865 -0.13162856026025338 M304.81948415202055 88.66135019419283 C325.90526631145144 61.32797942715351, 352.15000957519504 32.954068012529824, 373.42809949781997 10.082125332093455 M302.4906418278158 89.1135185070479 C325.0274874307807 65.96219564439522, 347.34291079450406 39.298874935011, 374.15493574984623 9.194846891685046 M323.4357035443443 89.98485884930281 C341.5893868134141 69.11800859214026, 357.5449123739188 51.928806127982554, 375.42475666838016 32.680762627696396 M325.0127816958609 89.12431070789037 C336.6667993510076 77.70908005786073, 346.51530098231035 63.797569506640485, 375.34631935773666 32.433340555591286 M347.214411874046 89.8118636744567 C351.39235481279525 83.36572847607171, 357.40462504368645 73.5705103850721, 374.86582416303696 58.410154394124476 M345.3741635454124 89.18479220164053 C356.57838916165264 76.64000028820485, 368.0359647511164 65.51087511815396, 375.259910035024 57.32928108076456" stroke="#ced4da" stroke-width="2" fill="none"></path><path d="M-0.5743452681045269 -0.45564511670397373 C100.15597410795563 -0.4190210226120664, 201.3057755405279 -1.59008700609637, 365.6166872319301 0.03337656726535433 M365.5871991768055 0.5746144037693739 C365.4772750660714 31.354895444366733, 363.2857018634614 66.41019899167796, 365.3942544713192 83.59488297954873 M364.5104845291682 84.61291402853898 C250.42674277599397 85.26339540604387, 136.2880275351725 84.2028402835189, 0.625814958050345 84.48982172946785 M-0.5448568146675825 83.87084628597573 C0.6340597353650909 55.24987821415295, 1.0329310975744108 22.953432160762787, -0.9137334506958723 1.1726014595478773" stroke="#000000" stroke-width="4.5" fill="none" stroke-dasharray="12 8"></path></g><g transform="translate(907.0165623369852 523.3921864520489) rotate(0 82 22)"><text x="82" y="31" font-family="Virgil, Segoe UI Emoji" font-size="35.43661971830979px" fill="#000000" text-anchor="middle" style="white-space: pre;" direction="ltr">Analizado</text></g><g transform="translate(812.1519300991137 625.0212944332688) rotate(0 182.4770474700045 42.327073552425645)"><path d="M0 0 C0 0, 0 0, 0 0 M0 0 C0 0, 0 0, 0 0 M-0.23326995389542837 25.786412700726746 C4.611522993654536 17.269370771591916, 12.036120425152136 12.387813173512868, 20.33812807900634 -0.4222764899790761 M-0.4774303499423649 23.919935119054376 C5.838926140996708 18.723151374255686, 10.534485413432927 12.558415804986597, 20.55845019900974 0.746778194250119 M0.06203819438807301 47.946493661635444 C13.967123977958336 36.140775393689594, 25.258559542908394 21.88707686064345, 40.6131552258467 1.2103504360049016 M-0.7727780351416058 48.53227803450905 C15.162639207704267 31.116367724150823, 29.939210059307577 14.464383337505119, 42.41975003256999 -0.6517342237428778 M-0.7426847925224891 73.12354968892781 C21.167867174264092 44.932541715688814, 46.2451502101098 21.76998898696521, 64.47260734522123 -1.3791734406234255 M0.10619140343725775 73.22640486186741 C20.961225714056685 49.31148131472122, 42.64186711431809 23.912086604396293, 63.05922617380847 -0.7016987062500348 M4.867817985265695 91.24261166035294 C35.942498059732166 56.42617095560919, 67.0319161367885 20.838885481314747, 84.5094409800987 -1.5855624753328073 M7.122702394983911 90.76795316833167 C30.434257669294524 62.25867191078396, 54.15932547227459 35.95320835681307, 84.10666988249079 0.250784893213023 M29.124454476588475 89.13990609732323 C55.648854592758504 60.12306772729879, 82.7623618837267 26.977291270463063, 105.28340954844785 0.4484221014080063 M26.739810105131077 89.97145147726738 C55.49006264191425 58.6921445921494, 81.66415011229768 28.280532405148634, 105.66159898088259 0.03051515863067067 M48.450745432632935 90.32786711449373 C71.61636067216341 61.983296852049484, 95.51785081774973 37.26748318507235, 128.35250431424691 -0.1008182356469618 M49.36611218936272 89.99658121778268 C71.52680806545882 62.180052776656396, 95.30180566570428 36.412974017710006, 127.29344882475897 0.2316486917100562 M68.51386614636783 91.0250616063957 C97.16488517735763 58.37100169998071, 126.39633335818118 27.776615245345646, 146.58469050344567 -0.4440576274120076 M70.37554053244446 89.90935191136197 C99.78771297590396 56.14389942207468, 130.85977240967784 22.29392858833188, 147.32205841936658 1.0426117909900086 M92.8227887857619 88.82700959256032 C120.66322845506329 56.29226700611091, 148.40284484687518 24.09298797560382, 169.90905313002236 -0.3384883491331152 M91.67425358164192 89.88417151698955 C113.93648078558785 63.72354956906935, 137.14817489917098 38.40248514318552, 168.53756624548055 0.6181079331776687 M112.4157823937839 88.0186842175189 C133.57236980748573 64.64099697537233, 154.10184334046843 41.71351171470071, 191.62753311194575 -1.7940591312790275 M113.35688634672073 90.04759643114987 C138.09219365672345 61.96084355433228, 160.6048402009215 34.4998264480616, 191.4808963753665 -0.0959705477425814 M133.54791288840258 90.88701175080269 C161.083484667794 56.16970702153062, 192.57446083280252 25.436946190643155, 213.44636824218452 0.9937344206815197 M134.3628003999465 90.32208148782729 C158.49847881629847 63.21385181083882, 180.45109495606278 35.51315174815941, 211.44394944379002 0.2359171197136476 M154.72248403359617 91.7880811671657 C175.0889337991327 69.52700921360639, 191.98300035409693 47.10142147190101, 233.16359318870752 0.9563498262797623 M155.47627484709437 90.02443953872896 C185.80173975444043 56.3736306352341, 213.64832273377726 22.00258197392388, 233.1258526480168 -0.8172898554692836 M177.00277355531446 89.44080582569362 C199.38858212176265 62.196359048629304, 224.44139630416277 32.564600059908635, 254.3565394944834 -0.5353022699530641 M176.60699244341097 90.69075313239367 C200.9248893807517 61.826475002151156, 224.6714409977037 34.60679606271488, 254.28920974781238 -0.6095038268070141 M197.76317896753568 88.76768095114048 C224.3410058409679 58.021546411710034, 251.60185047352417 28.197288869701914, 274.069335577481 1.641641901514305 M196.50993541967142 89.44838199552859 C227.59697190720323 55.67779746407592, 257.7973084075503 19.868238579646473, 276.4163510654425 0.4262612896848452 M217.00095368822858 89.18844531303756 C243.60022085924197 62.68863151974704, 266.40272574550875 36.074900435286594, 296.500406730669 1.6744992352131476 M218.06587159814134 89.84087471211814 C250.57232635693833 53.79024007196038, 281.59095715759355 18.14384507886713, 296.36558348567263 -0.3783599845093022 M238.36764801036193 90.68729080591606 C264.76135062189854 59.96030052560728, 291.3726325804823 28.108436992651463, 316.6899751220162 -1.8724602493253428 M239.2815453635864 89.42642830364662 C265.11501815170385 58.72484545446375, 293.4645911409326 27.34054015865454, 319.02744045576856 -0.08333469040513819 M260.85660910190444 89.12536244930726 C282.27560278843094 62.96003924106266, 303.34832880107774 38.66790107181682, 338.2075597944913 -0.7455134075698879 M259.94592766327213 89.62163822909844 C292.981508104473 54.48471085317177, 323.43014426275465 18.073971959552665, 338.9809319854958 -1.2964814315182593 M280.49048100582485 89.5532583877424 C308.7182199306966 60.985618969427456, 330.9383228497337 33.3515516309069, 360.1834176370726 -0.9342743897664718 M281.2864660069642 90.54524838495797 C312.9513657039918 53.90155999888291, 342.77831450825767 19.04956519338954, 360.49373561812945 0.42498920635847526 M302.008704640092 89.52352989075274 C331.15011229118215 57.60695377081356, 356.92349232170625 28.858070493297994, 374.40363018181426 7.923772420621134 M302.6253344669283 90.8619011052096 C319.034491150441 72.43535297377728, 335.1063105556225 55.55754164494997, 374.5860332275207 8.701191716714419 M324.5550177976745 88.40318135286955 C334.7054483505396 78.26901956777853, 347.8514777645308 64.7772343435398, 372.9339577777895 31.32751492557466 M325.0356836779299 90.62588716133772 C338.06543444923244 73.19732764543588, 354.61091640415844 56.429252565858036, 373.62311519203956 33.64505819098443 M345.36495514654126 90.68617029362403 C353.5185485559514 78.17989526919337, 363.228233845229 71.54992423269903, 376.1133465767676 57.56458758494708 M345.9978908372348 89.12489576232664 C357.0906406423545 78.80396081898871, 366.9526568541664 67.27418886107333, 375.2776373802522 57.0459625909746" stroke="#ced4da" stroke-width="2" fill="none"></path><path d="M-0.942058291610653 0.47881055248385274 C122.96058906239928 0.13919232490221656, 248.364348933929 0.8648243231680217, 366.00091991484186 -1.0169845038452314 M366.1659792914562 -1.1304712910205126 C364.2423805848186 19.254754889459957, 365.6622289672916 34.57131461181054, 365.21550246621894 83.0568447853692 M364.6830586149197 84.55656536174648 C244.0056659652764 83.42076933898599, 123.9899234025645 84.41458082923234, 0.711711591318292 85.61709768445469 M1.2861720640212297 85.46584947363213 C1.9156653709303006 54.82755962201239, -0.6831115059961215 28.711118448981516, -1.3549461644142866 -0.6063024420291185" stroke="#000000" stroke-width="4.5" fill="none" stroke-dasharray="12 8"></path></g><g transform="translate(904.1078508085551 641.5651128996251) rotate(0 86.5 22)"><text x="86.5" y="31" font-family="Virgil, Segoe UI Emoji" font-size="35.43661971830979px" fill="#000000" text-anchor="middle" style="white-space: pre;" direction="ltr">Ejecutado</text></g><g transform="translate(813.4852634324471 743.354627766601) rotate(0 182.4770474700045 42.327073552425645)"><path d="M0 0 C0 0, 0 0, 0 0 M0 0 C0 0, 0 0, 0 0 M-0.3630916716345336 23.16227571637845 C8.067994554780121 17.013338738914456, 11.57883083616159 9.544595860157202, 19.751574565002585 -1.9469509651720998 M0.8975634213722561 24.2442702471233 C8.33231988823234 15.169035213209135, 14.292526271618634 8.195485571339603, 21.190236992480123 -0.2729141969070312 M1.3721979372202568 50.66743991398148 C14.445787177578623 34.51843678063597, 26.568906235601638 17.52123946223154, 43.74594108257048 -0.08355965015003619 M-0.23033908102669187 48.603032115519866 C9.888710665503627 37.839877919404394, 20.95500203021291 24.571598802418162, 43.057330397512544 -0.009938081880008554 M-1.2468770852127662 71.25738923656193 C25.055408700111695 47.01913580005072, 47.977722887703095 17.92952427403791, 64.29891470157881 -1.6967747041465273 M-0.32482411785066034 73.67617677277325 C24.785363149615925 44.218214069708324, 47.73524252800613 16.813201176660606, 64.68181763952006 -0.589057341914021 M4.882830785959207 91.9255139368689 C31.205001103170204 62.20016952093803, 57.02041543414391 30.41479390406723, 85.15384258999632 0.3245488923696769 M6.642762427590036 89.58578709858566 C25.64296651680109 67.49582927427474, 44.7894328463631 44.26026402370929, 85.4776696657683 -0.21867651802469368 M28.642620124572026 90.51389991131478 C44.254319452306795 70.21692882222422, 58.371103848589655 54.032345349337355, 107.08336879079175 -1.7189907160701736 M28.16965540842812 90.03408692882263 C58.31068283954461 56.12375952173184, 87.50948856488895 21.976856689656984, 106.29733398602289 -0.4050517137276515 M48.168902306812775 89.47834064955461 C78.10956313193117 57.94427461624129, 108.97468075912212 22.319836572084625, 126.92087519294336 1.7298673202879442 M48.66738216764755 89.59970300509232 C75.95574877353233 59.36191939619579, 103.6934642354814 26.951289231164502, 127.43192564355894 0.6461689851842536 M69.90424325065021 89.91826242111966 C94.45129821475022 65.16096010743372, 113.5050800257969 38.057987366682205, 149.8722176474009 -0.22129176447026566 M69.48155427751396 90.29884016137913 C89.10151217570545 69.46727285323969, 106.76901281777262 47.53782199043881, 148.8917133311231 -0.14514281025014952 M91.19550574905307 90.24754462054112 C117.47661088806774 59.43058162491873, 147.76697149037204 24.837553607319435, 169.26687179314263 0.9261991294092127 M91.45875987279297 89.78735166916736 C113.32636859381137 65.78273521994191, 133.6708108765666 40.497976376324445, 169.12601521699048 -0.3615883108237199 M111.9813494699901 89.50701976735029 C141.0520871842063 57.60825571080897, 172.71808254537683 20.813097074359007, 190.8696691731373 -0.6442493535423637 M113.60281365075019 89.20448923744145 C129.46765518282035 68.54324537305516, 149.0609601432469 47.85493230858462, 191.30368506092674 -0.2633298700520754 M132.47973095643007 88.67697350607841 C159.41877485813916 62.95448367913448, 182.61890327085268 36.23054813484787, 211.91223820535362 -0.9972734437937305 M134.73100687115127 90.01665301268577 C156.4770390615783 61.7004895260405, 179.97918955648893 35.578871762137325, 211.3133031851974 -0.1896314039508269 M156.2193445973512 90.74435418647951 C175.7365962469963 64.69118266500426, 197.07151338945292 41.86558365768584, 234.7805041827604 -1.133056246813652 M155.4742983272713 90.61585115910745 C175.6448365101281 64.45831245400899, 199.5825246811515 37.15312544059338, 233.41942647456824 0.2848916089643865 M174.3513587437033 90.99643454263926 C194.1198552888017 67.19905505572699, 216.23112071141423 43.07844244829596, 254.70218927332633 0.32517225692910756 M176.55780046185694 90.1446115377453 C199.38398554933485 62.92291876497639, 223.60241317453065 33.63084305801092, 254.91883837630473 0.19402212767792548 M197.40056153446454 88.86156917431171 C216.4533653387718 68.73319957667124, 233.6369706213362 48.40737426666298, 277.4343125200202 0.44363521196581246 M197.5206751931833 90.8679891878065 C224.30289508726628 60.267532082054466, 251.09305320938546 30.834391532574045, 275.79679890017263 0.02369154867417933 M219.57709701260373 90.20285622602813 C239.45421348533912 68.06873609886317, 259.69934953005213 45.123609338654575, 298.95068984081075 -0.7094911121722589 M218.99662003101602 89.99847800577544 C243.89997099484296 61.99247571405833, 267.9327807064252 32.9354060372559, 297.38329461843745 -0.44427029406244856 M237.80790609608962 91.38534696731972 C268.4319335260723 55.3590436981413, 298.95140010799184 18.97513191622221, 319.12943402866676 1.2484226790460866 M238.71405904762074 90.29447032563644 C267.82962558664707 58.95289398359073, 295.8030512921682 27.557172613992385, 318.0092886658649 0.71161487095236 M261.4242265778909 88.58854579271775 C290.41575146079293 55.57614858063125, 318.8519982400542 21.909790109314528, 341.4404547515569 -1.6730408948478726 M261.152392877763 90.9040069188739 C289.6820491258769 58.037430298029456, 318.1199760808809 24.037931595607063, 339.66297073972055 -0.6037762472969916 M283.84909312597637 89.11891022175348 C303.42312216800053 65.56098456137917, 325.4053166813109 40.1055360997423, 361.97689952345945 0.2298633908998795 M282.1982487187085 89.20852699447221 C305.26486625125284 62.60093808362106, 329.635753157242 36.39057171724903, 360.9899480707795 1.0962910778966375 M304.2848372833148 88.72235089895815 C319.33738050314986 73.10826317908402, 336.5502712607801 52.27096422222908, 372.5502405014287 6.950510527825571 M302.8017303302229 89.66661819891573 C318.27276412554 73.55722157797163, 333.12607953733124 56.47270252953681, 373.35708222039295 8.0071266525226 M323.40058746787486 90.89673159386305 C340.4635997705014 73.30105467550548, 352.8706234517123 54.80982255039924, 374.3141286595377 33.556147792910934 M323.6326680345717 89.65776661618887 C335.7599110410756 77.35104890229546, 344.5834712847828 66.43010196270697, 374.44509325443084 33.348107880515755 M345.0197689726254 88.20436920099937 C354.54979659915296 81.76038419426129, 364.2722599194041 71.16551311315771, 375.7579007745558 55.840269021008936 M346.73686871652063 90.32610676777594 C352.81415067633475 83.31770257277523, 359.31163868505024 75.58027212935608, 375.2108167289594 57.54630403618219" stroke="#ced4da" stroke-width="2" fill="none"></path><path d="M-0.8902892586046559 -0.6922554310004508 C96.84626358585743 -0.8403427918819963, 193.4141675627055 -1.890703862992582, 363.8346428974559 0.39570820068275475 M363.9744060888462 1.4394655209034681 C365.9072096521266 26.76915461941586, 365.72845764702635 54.05953516995462, 365.5738312258892 83.94440282837228 M364.80065921302383 83.4960102392215 C257.29748089853626 84.31175744578067, 149.10094853228117 85.43903340076751, 0.4668576903257288 84.31359605933487 M1.6850434262305498 83.38537467972115 C-1.4581324462448886 63.745987570365244, -1.8993451599633029 39.88632267475446, 1.174820812419057 1.7754362802952528" stroke="#000000" stroke-width="4.5" fill="none" stroke-dasharray="12 8"></path></g><g transform="translate(922.4411841418881 759.8984462329572) rotate(0 69.5 22)"><text x="69.5" y="31" font-family="Virgil, Segoe UI Emoji" font-size="35.43661971830979px" fill="#000000" text-anchor="middle" style="white-space: pre;" direction="ltr">Validado</text></g><g transform="translate(810.6896191966631 860.101497876145) rotate(0 182.4770474700045 42.327073552425645)"><path d="M0 0 C0 0, 0 0, 0 0 M0 0 C0 0, 0 0, 0 0 M-0.9224820973166015 24.827037617280244 C6.399253565775903 17.793597269716606, 10.337353305664394 11.911923507506327, 19.365466762611533 0.24331981634492905 M-0.030597544070401383 24.98630736460453 C5.581448204072621 17.308578934167592, 11.700751438932716 11.020178052334742, 20.624745018126333 0.8639917712822083 M0.6729492656885796 49.234816408389136 C10.574706907044115 33.344589518364984, 24.080854790016318 21.09494970971819, 42.69714788589232 1.620043498310352 M-0.40073523018516966 49.41051608663879 C15.578949957706634 30.386696719167798, 33.0459413354641 12.430850613190024, 42.19754025116168 -0.9400925842718237 M1.7105247864684472 72.00313716041295 C13.966220042131788 57.393876578255984, 29.980108312004965 42.219750087777435, 64.04410114967604 -1.8017386028052798 M-0.6601239077562084 72.42001824206112 C16.10857817132485 55.657785705218814, 31.19262782872382 36.56664052706204, 63.11873273914088 -0.2602835453556409 M7.547298239915811 88.43398387610077 C33.59293287913346 60.4983266252826, 61.04054207277324 25.784208873570762, 87.02857997193144 -0.2272877174707162 M6.686687414906167 89.88884983557372 C34.609087835607 57.076120830734695, 65.4208388403525 24.218124664424693, 85.45659030432955 0.25946747201513176 M25.94347444986652 92.05303620186501 C49.13454318973848 68.09849796494453, 69.65996673920813 45.00621932037481, 106.92713464562726 0.7025880488452927 M28.29123046593468 90.58368782804214 C56.99483784643556 56.47464175571189, 87.76704826063661 21.045930942897442, 106.40535733149332 -0.010142510675130723 M48.53937104250766 88.3746813773607 C68.76061939401805 69.44721425180359, 88.0743447679415 45.80331881530614, 125.70205330974176 -0.021256704103230106 M49.406829463313294 89.46011208607453 C73.38307050868971 60.68342160997172, 99.45465437732105 31.108954634368715, 126.2854457389073 0.9146915457807197 M69.90646018580799 88.93193942211911 C89.50006019390834 65.36365265066038, 112.01353537108703 40.29949486705025, 148.3130980652247 -0.4826429922305806 M69.90839285430764 90.22378056865529 C89.21740741536192 67.09770813999594, 110.37302811964912 43.587014371288305, 148.82392109431814 -0.5442056225784881 M90.14551092273624 89.94728348067143 C111.6763294561156 70.39745716159068, 128.49297061951071 48.120786345875096, 170.4686508010543 0.0006900342172571072 M90.85930564868332 89.53249967226871 C117.30827805500016 61.00708449094651, 140.93447670803675 32.967749554946394, 169.87439844100095 0.8450178984543868 M114.57408917126116 91.64513982254896 C143.21870145373873 56.963321534299645, 175.2808069505911 20.98983294552336, 190.93744931019938 -0.8292532302284599 M113.16767941870597 90.83997423089924 C136.33844174555398 60.65740364458641, 162.1398796034914 33.27600635651009, 189.6975284137214 0.9491528803637266 M135.41405772435152 91.56438784228294 C155.75786388854345 66.15522453047704, 177.87837612128027 39.649471475150555, 210.58002826062858 -0.10351526603646732 M133.24260229914123 89.23955751603125 C151.48018397588174 69.55848046397684, 168.76135186044314 48.167403309390636, 210.961188209745 0.8683885321339204 M154.82301722098555 88.6255696396274 C173.87956865297747 68.03742708511483, 191.54671236797213 49.32558926443835, 234.03621919531076 -0.5136854286755295 M154.9943299582642 90.06271081687188 C183.76593738939346 56.341270214706896, 212.35332405299266 22.943588395683747, 232.3967315888375 -0.2199374997506709 M177.20604226211302 89.42455169866801 C188.74517691771067 70.57352154609632, 207.71141793650415 53.287072594929406, 253.41265053221457 1.0006000513855895 M176.1147717138215 90.70391511945994 C197.84499424725485 64.87740813488566, 219.87020317663126 37.06415897491643, 255.45523887326442 0.7824108686943134 M196.96682723671216 92.07328236915882 C219.17660348165515 66.33300858221226, 238.2872429766118 45.51013612353334, 273.97024756430886 -1.4358419313218462 M196.7973863590883 90.99267858800258 C221.4093298132732 61.208650264952695, 247.51235079858128 31.7967189429094, 275.9637669477915 -0.2616818410467374 M218.81942243775174 88.4934535456311 C246.83064811975234 61.07491007348104, 273.87303544664485 28.298163831320466, 297.8117324595623 0.6787586427334418 M218.0176682788302 91.01844824398421 C243.96832372503056 61.09807878880082, 270.37424464181925 30.551988804600313, 296.78159925968424 -0.88093266998942 M240.81967503320053 88.48371024761605 C269.9891833311877 59.11131517517194, 296.7629042209432 24.43626272171872, 317.5691242609437 -0.4643750819173533 M239.53333842031284 89.72906954638916 C258.31148218957816 69.44553296155667, 277.0651152717668 48.20063002817361, 317.4564958187084 -1.1519102216494161 M260.0527290660272 89.03215061964494 C289.3094152688439 57.07445837512344, 317.86294487259005 27.015002933577705, 340.0912388864217 -1.6720668357429531 M261.5405942933018 89.77453639170182 C286.76967154584673 63.22353076114622, 311.3581940230017 33.254702271524, 338.88094319712945 0.14471533795767755 M280.32052545420055 89.62882593124903 C307.6499471701651 59.219426412855206, 331.60338975890494 32.085198514175644, 359.47513009997465 1.3180223560106583 M281.3303599700627 89.35074111390657 C299.08309410817014 69.93069451352076, 316.9544660084192 49.47045624112498, 360.2923455007226 1.122631860539002 M301.8293019906894 89.57824057695956 C331.3624782320458 58.004416112617726, 354.4532765398039 29.53056279698714, 372.16117630865676 10.43286123487971 M302.9445360853613 91.04322448448778 C320.2376914839911 70.36449926158313, 336.34996067641697 52.548709634370574, 373.33686116583897 7.916602277083911 M324.8770933434623 91.31185207630782 C339.86414013290573 71.62512841594194, 357.6433178840923 50.0903544387213, 374.55693473654117 34.04829082784593 M323.832249836463 89.67092571242986 C336.36550703022954 78.250142385583, 346.9581217985618 65.38743048025962, 373.66200713334854 32.99795711652726 M347.54123105548825 89.70057107382499 C353.3182512726666 79.88948167103831, 362.9295221749819 72.417396125927, 373.0306484103972 56.64139871976229 M346.50610498313364 89.12993244421713 C357.1026124931439 76.7471513431263, 368.3614417822527 64.19219985349402, 373.8789158343175 57.35821877817514" stroke="#ced4da" stroke-width="2" fill="none"></path><path d="M-1.2183201323672939 0.6518819126706125 C120.73184320118285 1.5913773533942484, 239.77537859814615 1.9786624549141574, 365.6646489563158 0.08815647999762662 M363.7885362758808 1.3177238684147596 C364.4868093585126 26.747117163775748, 365.6813064073674 53.1143747627256, 366.83973982478904 86.61838032261208 M364.3126540953952 85.5757477579173 C264.1170995820693 84.72007400058648, 164.2466853578915 83.43663025349814, -0.2090274547623648 85.15021723040257 M0.4022764880210161 82.94250036732033 C0.38899607920512136 59.38872014663326, -0.6993533227457148 36.2519912412538, -1.5923249404877424 0.8827977161854506" stroke="#000000" stroke-width="4.5" fill="none" stroke-dasharray="12 8"></path></g><g transform="translate(888.6455399061036 876.6453163425012) rotate(0 99.5 22)"><text x="99.5" y="31" font-family="Virgil, Segoe UI Emoji" font-size="35.43661971830979px" fill="#000000" text-anchor="middle" style="white-space: pre;" direction="ltr">Completado</text></g><g transform="translate(414.1666920979819 268.59527624220755) rotate(0 98 22.5)"><text x="98" y="32" font-family="Virgil, Segoe UI Emoji" font-size="36px" fill="#495057" text-anchor="middle" style="white-space: pre;" direction="ltr">Pasa por &gt;</text></g><g transform="translate(87.57778485878589 368.6376273052547) rotate(0 73.00701899256819 88.54335260115613)"><path d="M0 0 C0 0, 0 0, 0 0 M0 0 C0 0, 0 0, 0 0 M0.4443088189093519 5.611135860581987 C1.8036687595444754 4.628800642943136, 3.563831620470524 3.1823710547519926, 4.982296140822119 -0.243631936252374 M-0.5773381728352853 6.489197355185739 C0.6480289740187651 5.421920921219485, 1.923550425631523 3.914550564528138, 5.075095729487485 0.08531252963815272 M1.4183468156586994 11.599317254542887 C5.405666381938575 7.92944017546101, 7.931889728185185 3.354439600434457, 9.42408677930845 -0.6084651042625546 M0.15009333948601356 12.535768922835171 C3.1314415722920765 9.132397448966515, 5.354176156583349 5.344442714910956, 11.034328972500694 -0.607557521472895 M-1.7191602113237838 18.577756070439392 C3.7639568581106797 13.830338382709336, 10.321727507111651 5.482055454152089, 16.62420116132446 1.8522236297768524 M-0.24232410458384557 18.9334645139991 C3.4318295154652834 13.529144822677537, 7.345985697905998 8.963168105827064, 16.231954668186088 -0.2782466526213119 M2.1080257428995584 22.47099269153094 C5.375467879787354 18.026225629601125, 11.039059514152056 14.076713595929046, 19.38928767693963 -1.8973246520221707 M-0.6596878122352745 24.169972778014003 C7.374518016875218 15.511354899854283, 14.914810859745776 8.39991980574631, 22.13010745057639 0.21396856793905528 M-1.103181087360774 29.486227482322803 C11.512068371529807 18.822915643587557, 17.971615414587124 6.865633274135277, 27.458693810414882 0.5454987710353674 M-0.9091159123415693 31.20629083434885 C8.00060102290358 22.560575149791767, 14.577874421723529 15.008620863463527, 25.851499795589955 -0.3167908430087625 M-0.453130364520522 35.26480799149846 C8.556891302835352 26.55379032858056, 18.734734930728965 15.290979263416734, 30.190863303324974 -0.1416525075898285 M-0.07109112395909634 36.68098913207774 C12.794492060341224 22.979681773080554, 24.295366503995712 9.907167985268075, 31.58596582566092 0.8522031708865647 M-1.848812375995422 42.09847239274137 C9.836677170429512 30.067640230609953, 21.74519141880791 17.13757830051654, 36.95086315628265 -0.04939594854596052 M0.06784914635578332 43.26681780777477 C11.762852484133333 28.61015584288848, 22.74075123089875 15.978593251161119, 36.974298859761404 1.2154466743674597 M-0.03453512117274471 50.255978225403354 C8.589670841957858 39.1752111792664, 20.110955733581445 25.933715318036334, 42.29635586086266 -1.01179670837233 M0.5781857175751739 48.903585426182374 C12.20345732303827 34.33168001473052, 26.420409100541466 19.102770711878094, 42.88797364532553 -1.029722901214754 M1.9379888915222736 55.762635332945095 C19.151609220138624 33.72174743938344, 34.15468785231814 13.372528450681067, 46.66662716767776 0.4938090022828625 M0.5110808371332141 55.483941918651865 C11.674172413936297 42.64701633337641, 21.035985708769346 31.55166619949366, 47.71192412632543 0.023299883882348382 M1.3986704127023728 61.500482504718406 C19.81426057146043 40.7658703175037, 36.3775650601667 18.985976585102414, 53.56855831830269 -1.6283627231196753 M-0.8188440509979813 61.85980522492568 C13.37277650235999 46.94640078216024, 25.718264569484635 31.910575101111554, 53.12426567519522 -0.07853816398990077 M0.5889566549518079 66.98782041440676 C20.581593967355772 43.75656481381364, 36.71994600805052 22.674156203757292, 58.26565381335021 0.0076331547718488935 M-0.7098451033747821 66.52814423157791 C15.600653290723232 49.307990805179855, 30.058035819385463 31.73715999073186, 58.37907286090703 0.8584777699109161 M-1.368845794145166 71.70584036069361 C21.9490351891667 46.45991733561573, 44.21018587569333 22.443514630773358, 64.96401364439507 -0.7057060205818644 M0.49001683594644163 72.86385751268266 C23.339190269718333 46.519129827053874, 48.29982585136459 19.113347117055604, 64.08610168089498 -0.3940961330638757 M1.497751941024191 80.42525300793079 C15.08945096654651 61.647345594922456, 28.713772891299648 44.996142115042666, 67.50136106205001 -0.26915395982901913 M-0.054050851562195135 79.35265207048235 C18.610798166285022 58.309549414957246, 37.86904897124645 36.251046388309156, 68.49356732913121 0.519564316828145 M0.5413342270346391 86.98582132457898 C21.035898735970637 61.731085390743544, 42.176671408584156 37.48376494212415, 74.53301480788978 -0.5519320695088936 M0.4600906440334427 85.2768262738283 C26.458505293787194 54.168711500574915, 55.40223026876541 21.575095230671742, 75.26786642804983 -0.5293753240616752 M-0.816391310501082 91.39653722498998 C24.617363202339828 62.1457844322388, 53.4536827253332 34.58386013149103, 78.22091688252715 -1.6915328102697202 M-0.24571067079453002 90.72169649996296 C27.20251058773855 59.92474841244095, 54.996427825442595 28.294663571243113, 79.77635479662297 0.8520185090090564 M-0.5546805839987172 99.61515450784728 C30.705184575675123 63.01970219826051, 61.97160333296515 24.225620744428696, 83.41960477753685 -1.0688963386507737 M0.5937656098975168 98.2613800729604 C26.341774022478493 66.98950380969087, 51.69738957623298 36.84626513041037, 84.86706968228475 -0.49047925260830993 M-0.08443013087401141 104.87481759683433 C34.13660365963348 64.38661635009208, 67.27197325398615 21.94655017874318, 88.36523924353162 1.7917661346997278 M-0.6498147954467868 103.19167400439474 C27.529085023010882 70.38670147152209, 56.581149429784226 36.85932709601552, 89.15150752900729 -0.2518256691713674 M-0.2788542005142247 111.01069028130294 C30.686996194722713 73.77685366310516, 60.257615699785944 41.265730489265565, 93.86157652208627 -1.7522042967574976 M-0.4352679428553259 110.76293373400839 C35.38034324852609 69.8028072018036, 70.75488149209069 30.189619252542798, 94.78434620922476 -0.7366364343287728 M-0.943571551344597 114.23948865471384 C30.317450500806295 82.649753415878, 54.2639931362185 50.514584625082456, 99.96899611381346 1.6382624063293392 M1.0717715401060346 114.8658560681527 C29.073265294868996 82.51387662260106, 59.506591882038556 50.26484475825781, 99.74622279190922 0.1472407666618878 M-0.12757768275238845 122.25965775641879 C38.90571825806951 79.28500340543016, 76.79653974390241 32.92381842024763, 107.190473010288 0.30878858742094195 M0.28162822240940955 121.03790582157006 C36.70894864842873 80.47454489004343, 70.7150535733794 41.148459936879775, 105.62345577449483 -1.1802003848480567 M-1.593331632153344 128.03090451010127 C28.52825561303417 94.96211940172988, 57.03103266842549 63.5212655307829, 113.16060546212263 0.7117255358690997 M-0.695750927501571 129.1490987558346 C34.87391968149463 88.30736210631838, 66.9257066764902 51.4184680526633, 111.89082285095371 -0.9646981991161923 M1.1525669380367987 133.10082646444476 C27.77488122418075 103.50329433664834, 51.387397726258 72.3849913264541, 117.1755281819016 1.1856864253573107 M-0.4877236286832698 134.6348803200204 C32.8036557385997 94.41103669850716, 66.72772119993239 57.20348692289578, 117.03522411472949 0.5680599604316043 M-1.171299346569242 140.9315405338011 C40.60212745405201 94.10907159914635, 80.93085880906776 48.08121626454647, 120.16223525720915 -0.7178249454309764 M0.10412062533640665 140.7290043913699 C32.81016913373672 102.98804141443824, 64.22390088823624 65.47714460944512, 122.11875497176578 0.4453164178694067 M0.9087476306033153 144.67921593663092 C30.7978726214808 114.8706094823537, 55.461300917742506 81.51785677751627, 126.64790306365802 1.0922145878560556 M0.22762376949161478 146.1493162137344 C44.43059105904566 96.61604490223537, 88.67395709922609 46.24864625594549, 127.34177905353471 1.180121925439657 M-1.5123674968876428 152.30492310744853 C44.294487749836534 103.73789837803321, 86.9280283559604 52.27162646821423, 131.41985982682726 0.9142819889539145 M0.23816838408327284 153.03113745452413 C30.678918677844525 115.34539169330981, 61.361397455709394 79.94188353156983, 132.20602332695591 0.4043070988883373 M-1.8598226785260934 158.35850852534622 C39.54516878689571 109.28917334694388, 82.10027470646465 62.77318235241688, 137.56092148821423 -0.9248747620871955 M-0.07566793971346256 158.95690574985704 C39.6248343303573 111.4462158388777, 80.29083812241876 64.51422145911316, 136.70929502137983 1.0417966736086557 M0.5336404612259467 165.03435180239 C55.42574731212013 103.18991893031554, 108.78866582528555 42.2666598273647, 144.72220435098436 -0.8593927275295864 M0.830427493471609 164.54887653276145 C49.79053243838875 108.77038179383176, 99.04452674837849 53.90177194601282, 143.87054686980088 0.16026266534992686 M0.886960612384574 170.47355466804194 C31.985863572632958 138.05729163952122, 64.14387857494647 99.53838236704557, 147.05094099995287 0.0912292510778987 M0.2906035002556606 171.2355550932631 C50.54745296124792 113.61283683868588, 99.95475555664692 54.669039374807134, 147.56195714005364 1.4109760556916675 M0.46926280284836525 176.78064205133413 C34.915153158453805 133.8129242410581, 72.26910795824197 93.07985156662461, 147.1160246623924 9.051518758216188 M0.00839642479186331 176.02436128592757 C36.38042964775176 135.71552070228375, 70.40520084825303 95.02766002492874, 148.00068896529862 8.25209794414765 M1.9840748157475774 180.0825046724921 C54.042106854047454 121.62594580666268, 103.34332599731292 62.9358512720695, 148.38095571218147 11.861361032928421 M2.9587012600120026 180.49202776056754 C60.933817865779304 111.5223936353056, 119.91751004481416 45.68534856021938, 148.11412114487388 12.641072927678598 M9.649418447417121 180.08829505155924 C64.68783156443726 115.11932055950645, 119.13333874138576 51.06679601241401, 148.74936597870425 18.858210641858587 M8.727871328067074 178.69211690543872 C45.3194892197709 139.10784476372422, 80.52053103596202 97.79754162247978, 146.6801602508336 20.1356997982774 M11.586254322802125 180.11039500007777 C53.937934670624784 132.7650466055868, 91.73878691216291 87.76191165961974, 145.41024359234135 26.79247040386851 M12.967204507162458 179.6167146577197 C65.45755428463221 121.553658898245, 114.95308630308563 63.41814076605216, 147.4226190822757 26.201699426360488 M18.36726886037063 181.41560722783993 C64.36740134088808 125.88935656486636, 110.46395155813283 74.7845480277077, 149.10459062295058 32.1752044485774 M18.415372869961672 179.44425419707636 C55.4777149842107 139.2969161252073, 90.56277616316007 97.09784846435673, 147.8433215816135 31.45731006673389 M25.50563709101384 181.72782304591698 C63.24509120949696 134.45231564888724, 102.05902764351718 94.38739744132896, 145.40474014645 39.87299157701574 M23.238819810922493 180.1908957565875 C60.85135543047994 138.5188836588241, 98.90423669281456 96.68147052432285, 148.2216076386117 38.883705714011114 M27.58679797796691 180.20425361543633 C67.60211150585279 135.63475384896762, 106.633441141771 95.12856233845494, 146.38492597860304 44.223335742052605 M30.187278913503235 180.01949288937934 C57.06936993420776 148.8998496973024, 84.55764149026248 116.76170173162583, 146.65169418730792 43.391538135740866 M36.155506021842555 180.44959397574974 C79.7897810225322 131.06106485440438, 124.04238968678686 79.68066355743682, 146.5176369950224 49.49694760803977 M35.124199746675984 180.26438541019422 C78.11007251806538 130.94202567109042, 121.85267424330425 81.41000993653219, 148.0487886091743 49.716514334165545 M40.699111214215534 179.5750914703179 C75.72516265055023 135.88859625970412, 114.45030426200344 97.67390017876116, 148.99939853329235 57.78829972366074 M40.768713307874876 179.33775450038348 C62.65286799349604 153.8791183536947, 84.88693830821863 126.97860246435086, 146.30897068515443 56.14564225835929 M45.33658680569859 179.29872238849262 C68.36739744459615 149.90491398224916, 92.34557166149939 122.35481176581368, 147.72009530599712 62.342255262598975 M44.978409791072025 179.73604934968958 C82.12703978875479 137.05719424626233, 118.72639231564197 94.51915876876353, 146.87226550869195 62.75010954489617 M50.0045015378665 178.9700153237346 C87.24213899951044 137.43593005639428, 122.20108993206236 96.44297448665606, 147.2322943137495 66.88069676420625 M50.529060818701595 179.9710605144638 C83.2949842555792 139.96813547156617, 117.92276412004239 102.04036871329062, 146.285716398759 68.6181622585186 M55.14604741133199 178.67022781539566 C83.44762999234689 145.85690569124114, 112.36781967208219 111.15423789922629, 147.2811580481242 75.38205907194333 M55.39739720973567 179.5763465594486 C89.01950412228342 140.23339615751576, 123.89949471836067 100.65375270937497, 147.32704810278972 74.54088783057796 M62.89701191766981 180.23716970693647 C79.36680012175503 157.10687906128325, 99.46750577766326 135.08355486434613, 147.49347225973398 79.18150597516194 M60.540831211608385 179.0383074159953 C91.81617660056557 144.5370190625996, 122.58701616678377 109.80145790288104, 147.28744456475616 80.0186417008166 M65.77480580749273 178.36537978770886 C93.74691500740535 148.05495738459703, 121.90704902377482 114.7925500037714, 147.9075591611631 86.7504631475456 M66.18023426829188 178.8026110238463 C86.18880272592098 158.59185463528797, 104.76787244073387 135.9484571701921, 147.09521212810202 85.94683025580868 M71.86443532237547 177.63094915117352 C98.7368842261729 147.47070782480856, 125.98366010073934 118.67138828956554, 148.9426003399958 91.02324688777779 M71.57965925222027 179.20526668935298 C100.8435202955628 147.91454858400886, 128.25133592289424 115.34302516137544, 146.87885244877089 91.84878956962828 M77.5075299629308 179.59169783668221 C92.64460037859112 161.46968343816042, 108.61173154724229 144.9913504701425, 145.36795967184486 98.72369286021026 M77.32911823236567 179.47905172725768 C91.98978730795476 162.3859060700262, 107.15097182366497 145.79125212205685, 146.5301354082349 98.1086641445178 M84.48831472073348 179.81199818769568 C102.26362912113815 155.54682584950004, 124.0578899755689 131.16773196633898, 148.833096523285 106.14468903330376 M83.12430470616223 179.6845848189118 C104.09330160931245 156.2161302881061, 124.53981611179802 131.72835515127255, 147.82776231642822 103.6571898493286 M88.72263784639624 178.96295149356573 C106.86615428009463 156.4967300640892, 126.11359684032257 137.50291007137477, 146.55659351992898 112.24835232141008 M88.04937136758205 179.71675265405773 C101.8970750754373 162.0923537935817, 114.95570962382385 147.11623532620453, 147.7201436798229 109.9781205613031 M92.7878840525033 180.6019209279758 C110.46992889506294 157.85270618022025, 127.89947331701973 136.82738679582894, 147.856069749361 118.44556152321269 M91.70059331006874 179.9904928692696 C111.24867738974092 158.1697517405722, 130.30826843048771 136.69719349647016, 146.4490624043626 116.79401110451539 M97.89229742663898 178.4991602896094 C118.06352232992779 159.1507084137722, 133.66752779721185 135.96434576828966, 146.1175036741654 121.92258606239506 M97.74944093956597 178.67367278862145 C111.0337250380305 164.71498297424154, 125.93239849436459 148.78429633180153, 148.11274670849093 122.29909599053957 M101.844304344416 177.96444274281828 C115.74435375653923 164.3555699056443, 129.71569673851263 151.26261750057114, 146.76455604495487 130.96771472830898 M102.50565288754586 179.91996816435574 C119.85571588109516 160.7064678998736, 136.19508417979648 142.91621149618362, 148.22894303618006 128.39216815911806 M109.5824266724091 179.62659375606324 C117.88864421091422 169.2836181870934, 127.16417825759257 161.16399613876104, 147.7884831033042 134.7507886144152 M109.04089921394251 179.55464611532386 C122.67954726524974 163.1474630953175, 137.566899088785 147.05335304878736, 146.8585792598641 135.36236191660223 M115.86430953623103 180.53366774369596 C125.0124921004229 165.70003907730234, 137.73229795865322 150.80337003029746, 148.4371643498261 142.42337776006545 M114.47155917522805 179.08099176876811 C125.95082153802528 165.09153273617764, 138.16152066597414 151.75190565458112, 146.88854244851512 140.89557957773442 M120.45269355245657 181.1777714241772 C124.19816608927876 172.60934197795902, 129.61309047755202 167.24196327442235, 145.74501574710484 148.89831408894324 M118.73844345633663 178.6113816185399 C130.44244363013937 167.47805896512224, 141.04348060552917 155.22804949348932, 147.1553420705768 148.7602744040888 M122.80444259669841 178.5952404618588 C131.0893214613245 171.14065710765897, 138.66087792657342 160.25960966868166, 146.50231263272465 154.17632014973208 M123.88957193874032 178.87371016688166 C131.32044405446211 172.21450192404927, 137.58494537626441 164.5040383177344, 148.00818290699274 154.04032934473946 M129.25651603553132 181.39146282520136 C132.55172390872167 174.56003822993304, 137.7735557439153 171.76204492939166, 149.22451263229829 160.6726378567837 M130.85989593237326 180.14246328264466 C135.6250175391048 172.8663419261671, 139.24191730080747 168.4052804059649, 147.87203796423506 159.3679357769288 M135.6893133341625 178.889219489548 C140.97948176297558 175.803202867559, 142.78557157104203 171.20056595549303, 146.7313831611443 165.01997608833835 M134.77643881084506 180.22310443333686 C138.45008774690336 176.10281864696688, 142.28823136786139 172.8626895119799, 147.38606883523983 164.65215035349019 M141.8427349068463 179.66121096691924 C141.2731712763272 177.76777378993623, 142.97229030352094 176.2374567301351, 147.99747785592916 171.4571263353172 M141.23530581549332 179.45154226773295 C142.6146560036639 177.37507224359337, 143.94480240674181 175.1317243180135, 147.00880784534382 171.36704537047254" stroke="#868e96" stroke-width="0.5" fill="none"></path><path d="M-1.6043133977800608 -1.8120242413133383 C56.28365281044476 -0.8396743913306421, 111.24117430126235 -2.0448496122969813, 145.2305105270498 -1.6539292987436056 M147.46077699751189 -0.461133623495698 C147.37399722524106 46.857616247064485, 147.48367376513897 90.90888526740494, 146.2841303476744 178.71513727314866 M145.2652686180227 177.24058525644338 C116.43050530546178 177.92135322976785, 86.45332217783738 177.33208186317162, -1.223601484671235 176.61943863712347 M-0.7145634945482016 176.39225986607468 C-0.08446533068002404 117.54504752194009, 1.2371233643692618 61.73009797992951, -0.5699268039315939 1.0632474180310965" stroke="#495057" stroke-width="1.5" fill="none" stroke-dasharray="3 6"></path></g><g transform="translate(10 595.8948527387865) rotate(0 166.5 52.933526011560616)"><text x="166.49999999999997" y="74" font-family="Virgil, Segoe UI Emoji" font-size="83.84670520231197px" fill="#000000" text-anchor="middle" style="white-space: pre;" direction="ltr">Solicitud</text></g><g><g transform="translate(279.0554538302956 448.5946535336625) rotate(0 217.5 -30.301337726353495)"><path d="M0 7.445537273646488 C38.68834080717486 -5.0453856052945945, 159.63004484304918 -61.48585194717651, 232.13004484304918 -67.5 C304.6300448430492 -73.51414805282349, 401.1883408071749 -35.11612586941201, 435 -28.63935104329441" stroke="#495057" stroke-width="4.5" fill="none" stroke-dasharray="12 8"></path></g><g transform="translate(279.0554538302956 448.5946535336625) rotate(0 217.5 -30.301337726353495)"><path d="M405.0974321063841 -26.223479902755702 C412.9547962722958 -26.85828756866127, 420.8121604382075 -27.49309523456684, 435 -28.63935104329441" stroke="#495057" stroke-width="4.5" fill="none"></path></g><g transform="translate(279.0554538302956 448.5946535336625) rotate(0 217.5 -30.301337726353495)"><path d="M410.54041199436995 -46.00968652062007 C416.96754865340694 -41.44536107489329, 423.3946853124439 -36.88103562916652, 435 -28.63935104329441" stroke="#495057" stroke-width="4.5" fill="none"></path></g></g></svg>